<svg width="1104" height="816" viewBox="0 0 1104 816" fill="none" xmlns="http://www.w3.org/2000/svg">
<g id="MongoDB, High availability architecture">
<g id="Group 6">
<g id="Infrastructure">
<path d="M8 0.5H1096C1100.14 0.5 1103.5 3.85786 1103.5 8V808C1103.5 812.142 1100.14 815.5 1096 815.5H8C3.85786 815.5 0.5 812.142 0.5 808V8C0.5 3.85787 3.85786 0.5 8 0.5Z" fill="white"/>
<path d="M8 0.5H1096C1100.14 0.5 1103.5 3.85786 1103.5 8V808C1103.5 812.142 1100.14 815.5 1096 815.5H8C3.85786 815.5 0.5 812.142 0.5 808V8C0.5 3.85787 3.85786 0.5 8 0.5Z" stroke="#8D8D8D"/>
<path id="Background white" d="M1 8.00001C1 4.13402 4.13401 1 8 1H1096C1099.87 1 1103 4.13401 1103 8V808C1103 811.866 1099.87 815 1096 815H7.99998C4.13398 815 1 811.866 1 808V8.00001Z" fill="white"/>
<g id="Content" clip-path="url(#clip0_473_6196)">
<g id="Label + Text">
<path id="Label" d="M61.18 29H56.742V27.516H58.03V20.712H56.742V19.228H61.18V20.712H59.878V27.516H61.18V29ZM63.2279 29V19.228H67.7499C69.3599 19.228 70.3399 20.222 70.3399 21.734C70.3399 23.218 69.4859 23.778 68.5899 23.834V23.918C69.4439 23.932 70.7039 24.534 70.7039 26.2C70.7039 27.768 69.6259 29 68.1839 29H63.2279ZM65.0759 24.814V27.432H67.6519C68.3519 27.432 68.7719 27.054 68.7719 26.368V25.892C68.7719 25.206 68.3519 24.814 67.6519 24.814H65.0759ZM65.0759 20.796V23.302H67.3579C68.0299 23.302 68.4219 22.91 68.4219 22.266V21.832C68.4219 21.174 68.0299 20.796 67.3579 20.796H65.0759ZM72.6711 29V19.228H74.7571L77.2631 24.002H77.3191L79.7971 19.228H81.7991V29H80.0491V21.986H79.9931L79.2371 23.54L77.2351 27.236L75.2331 23.54L74.4771 21.986H74.4211V29H72.6711ZM91.5234 29.168C88.9474 29.168 87.3094 27.474 87.3094 24.184C87.3094 20.894 88.9474 19.06 91.5234 19.06C93.2734 19.06 94.4074 19.802 95.0934 21.314L93.5114 22.154C93.2314 21.286 92.6154 20.698 91.5234 20.698C90.1514 20.698 89.2694 21.692 89.2694 23.358V24.898C89.2694 26.578 90.1514 27.53 91.5234 27.53C92.6294 27.53 93.3154 26.858 93.6374 25.976L95.1354 26.858C94.4354 28.314 93.2734 29.168 91.5234 29.168ZM99.5178 29H98.5518C97.3338 29 96.7598 28.356 96.7598 27.236V18.64H98.5518V27.572H99.5178V29ZM103.933 29.168C101.847 29.168 100.545 27.684 100.545 25.332C100.545 22.994 101.847 21.524 103.933 21.524C106.033 21.524 107.335 22.994 107.335 25.332C107.335 27.684 106.033 29.168 103.933 29.168ZM103.933 27.726C104.871 27.726 105.459 27.124 105.459 26.018V24.66C105.459 23.568 104.871 22.966 103.933 22.966C103.009 22.966 102.421 23.568 102.421 24.66V26.018C102.421 27.124 103.009 27.726 103.933 27.726ZM113.452 29V27.782H113.382C113.13 28.51 112.542 29.168 111.338 29.168C109.84 29.168 109 28.132 109 26.312V21.692H110.792V26.13C110.792 27.138 111.17 27.684 112.024 27.684C112.738 27.684 113.452 27.306 113.452 26.522V21.692H115.244V29H113.452ZM122.01 29V27.782H121.94C121.674 28.608 120.89 29.168 119.924 29.168C118.09 29.168 117.068 27.782 117.068 25.332C117.068 22.896 118.09 21.524 119.924 21.524C120.89 21.524 121.688 22.056 121.94 22.896H122.01V18.64H123.802V29H122.01ZM120.498 27.684C121.352 27.684 122.01 27.25 122.01 26.494V24.17C122.01 23.456 121.352 22.994 120.498 22.994C119.574 22.994 118.944 23.68 118.944 24.716V25.976C118.944 27.012 119.574 27.684 120.498 27.684Z" fill="black"/>
</g>
<g id="Icon">
<g id="Cloud">
<rect width="24" height="24" transform="translate(16 12)" fill="white" fill-opacity="0.01" style="mix-blend-mode:multiply"/>
<path id="Vector" d="M28 17.25C28.3803 17.2499 28.7597 17.2876 29.1325 17.3625C30.3107 17.5882 31.3943 18.1618 32.2432 19.0094C33.0921 19.857 33.6675 20.9396 33.895 22.1175L34.09 23.13L35.1025 23.31C36.1252 23.4859 37.044 24.0407 37.6757 24.8639C38.3075 25.6871 38.6058 26.7181 38.5112 27.7515C38.4165 28.7848 37.9359 29.7446 37.1652 30.4393C36.3944 31.134 35.3901 31.5128 34.3525 31.5H21.625C20.5874 31.5128 19.5831 31.134 18.8124 30.4393C18.0416 29.7446 17.561 28.7848 17.4664 27.7515C17.3718 26.7181 17.6701 25.6871 18.3018 24.8639C18.9336 24.0407 19.8524 23.4859 20.875 23.31L21.88 23.13L22.075 22.1175C22.3393 20.7422 23.0764 19.5027 24.1585 18.6138C25.2406 17.7248 26.5996 17.2423 28 17.25ZM28 15.75C26.2545 15.7486 24.5631 16.356 23.2173 17.4677C21.8716 18.5793 20.9557 20.1256 20.6275 21.84C19.2463 22.0901 18.0084 22.8476 17.1571 23.9637C16.3058 25.0798 15.9026 26.4738 16.0267 27.8721C16.1507 29.2703 16.793 30.5716 17.8275 31.5204C18.862 32.4692 20.2138 32.997 21.6175 33H34.3675C35.7712 32.997 37.1231 32.4692 38.1576 31.5204C39.192 30.5716 39.8344 29.2703 39.9584 27.8721C40.0824 26.4738 39.6792 25.0798 38.8279 23.9637C37.9766 22.8476 36.7388 22.0901 35.3575 21.84C35.075 20.3654 34.3565 19.0095 33.2948 17.9478C32.2331 16.8861 30.8772 16.1675 29.4025 15.885C28.9401 15.7972 28.4707 15.7521 28 15.75Z" fill="black"/>
</g>
</g>
</g>
</g>
<g id="Location">
<rect x="48.5" y="72.5" width="1007" height="327" fill="white" fill-opacity="0.01" style="mix-blend-mode:multiply"/>
<rect x="48.5" y="72.5" width="1007" height="327" stroke="#0F62FE"/>
<rect id="Background white_2" x="49" y="73" width="1006" height="326" fill="white"/>
<rect id="Background color" x="49" y="73" width="1006" height="326" fill="#EDF5FF"/>
<g id="Content_2" clip-path="url(#clip1_473_6196)">
<g id="Label + Text_2">
<path id="Label_2" d="M106.996 97.234V101H105.148V91.228H109.558C111.336 91.228 112.442 92.404 112.442 94.252C112.442 95.596 111.826 96.618 110.622 97.024L112.624 101H110.566L108.746 97.234H106.996ZM106.996 95.68H109.376C110.09 95.68 110.524 95.288 110.524 94.574V93.93C110.524 93.216 110.09 92.838 109.376 92.838H106.996V95.68ZM117.242 101.168C115.086 101.168 113.798 99.67 113.798 97.332C113.798 95.022 115.044 93.524 117.186 93.524C119.468 93.524 120.518 95.204 120.518 97.206V97.794H115.66V97.976C115.66 99.026 116.262 99.74 117.438 99.74C118.32 99.74 118.852 99.32 119.3 98.746L120.266 99.824C119.664 100.65 118.6 101.168 117.242 101.168ZM117.214 94.868C116.276 94.868 115.66 95.568 115.66 96.576V96.688H118.656V96.562C118.656 95.554 118.138 94.868 117.214 94.868ZM128.848 101.616C128.848 103.142 127.812 103.968 125.012 103.968C122.548 103.968 121.61 103.324 121.61 102.246C121.61 101.434 122.1 100.972 122.912 100.846V100.692C122.31 100.538 121.974 100.062 121.974 99.474C121.974 98.718 122.618 98.34 123.318 98.186V98.13C122.436 97.724 121.988 96.968 121.988 96.002C121.988 94.518 123.038 93.524 125.012 93.524C125.46 93.524 125.922 93.58 126.286 93.706V93.468C126.286 92.754 126.65 92.404 127.322 92.404H128.456V93.776H126.902V93.972C127.658 94.392 128.036 95.106 128.036 96.002C128.036 97.472 127 98.452 125.012 98.452C124.592 98.452 124.214 98.41 123.892 98.326C123.612 98.452 123.374 98.662 123.374 98.984C123.374 99.348 123.682 99.53 124.326 99.53H126.286C128.078 99.53 128.848 100.3 128.848 101.616ZM127.168 101.826C127.168 101.364 126.832 101.084 125.922 101.084H123.43C123.164 101.28 123.052 101.546 123.052 101.84C123.052 102.4 123.472 102.736 124.592 102.736H125.488C126.65 102.736 127.168 102.442 127.168 101.826ZM125.012 97.234C125.866 97.234 126.328 96.842 126.328 96.114V95.876C126.328 95.134 125.866 94.756 125.012 94.756C124.158 94.756 123.696 95.134 123.696 95.876V96.114C123.696 96.842 124.158 97.234 125.012 97.234ZM130.939 92.628C130.197 92.628 129.889 92.25 129.889 91.732V91.452C129.889 90.934 130.197 90.556 130.939 90.556C131.667 90.556 131.989 90.934 131.989 91.452V91.732C131.989 92.25 131.667 92.628 130.939 92.628ZM130.043 101V93.692H131.835V101H130.043ZM136.97 101.168C134.884 101.168 133.582 99.684 133.582 97.332C133.582 94.994 134.884 93.524 136.97 93.524C139.07 93.524 140.372 94.994 140.372 97.332C140.372 99.684 139.07 101.168 136.97 101.168ZM136.97 99.726C137.908 99.726 138.496 99.124 138.496 98.018V96.66C138.496 95.568 137.908 94.966 136.97 94.966C136.046 94.966 135.458 95.568 135.458 96.66V98.018C135.458 99.124 136.046 99.726 136.97 99.726ZM143.913 101H142.121V93.692H143.913V94.91H143.983C144.277 94.126 144.893 93.524 146.027 93.524C147.525 93.524 148.365 94.56 148.365 96.38V101H146.573V96.562C146.573 95.526 146.223 94.994 145.369 94.994C144.627 94.994 143.913 95.386 143.913 96.17V101Z" fill="black"/>
</g>
<g id="Icon_2">
<g id="Location_2">
<rect width="24" height="24" transform="translate(64 84)" fill="white" fill-opacity="0.01" style="mix-blend-mode:multiply"/>
<g id="Vector_2">
<path d="M76 97.5C75.2583 97.5 74.5333 97.2801 73.9166 96.868C73.2999 96.456 72.8193 95.8703 72.5355 95.1851C72.2516 94.4998 72.1774 93.7458 72.3221 93.0184C72.4668 92.291 72.8239 91.6228 73.3484 91.0983C73.8728 90.5739 74.541 90.2167 75.2684 90.0721C75.9958 89.9274 76.7498 90.0016 77.4351 90.2855C78.1203 90.5693 78.706 91.0499 79.118 91.6666C79.5301 92.2833 79.75 93.0083 79.75 93.75C79.7489 94.7442 79.3534 95.6974 78.6504 96.4004C77.9474 97.1034 76.9942 97.4989 76 97.5ZM76 91.5C75.555 91.5 75.12 91.632 74.75 91.8792C74.38 92.1264 74.0916 92.4778 73.9213 92.889C73.751 93.3001 73.7064 93.7525 73.7932 94.189C73.8801 94.6254 74.0943 95.0263 74.409 95.341C74.7237 95.6557 75.1246 95.87 75.5611 95.9568C75.9975 96.0436 76.4499 95.999 76.861 95.8287C77.2722 95.6584 77.6236 95.37 77.8708 95C78.118 94.63 78.25 94.195 78.25 93.75C78.2494 93.1535 78.0121 92.5815 77.5903 92.1597C77.1685 91.7379 76.5965 91.5007 76 91.5Z" fill="black"/>
<path d="M76 106.5L69.6734 99.0385C69.6375 98.9956 69.4122 98.6999 69.4122 98.6999C68.3314 97.2763 67.7475 95.5374 67.75 93.75C67.75 91.562 68.6192 89.4635 70.1664 87.9164C71.7136 86.3692 73.812 85.5 76 85.5C78.188 85.5 80.2865 86.3692 81.8336 87.9164C83.3808 89.4635 84.25 91.562 84.25 93.75C84.2527 95.5367 83.6692 97.2749 82.5889 98.698L82.5878 98.6999C82.5878 98.6999 82.3628 98.9956 82.3293 99.0354L76 106.5ZM70.6094 97.7963C70.6094 97.7963 70.7844 98.0274 70.8243 98.077L76 104.181L81.1825 98.0684C81.2154 98.027 81.3916 97.7942 81.3916 97.7942C82.2746 96.631 82.7517 95.2103 82.75 93.75C82.75 91.9598 82.0388 90.2429 80.773 88.977C79.5071 87.7112 77.7902 87 76 87C74.2098 87 72.4929 87.7112 71.227 88.977C69.9612 90.2429 69.25 91.9598 69.25 93.75C69.2483 95.2111 69.7259 96.6325 70.6094 97.7963Z" fill="black"/>
</g>
</g>
</g>
<line id="Border" x1="50" y1="72" x2="50" y2="120" stroke="#0F62FE" stroke-width="4"/>
</g>
</g>
<g id="Location_3">
<rect x="48.5" y="72.5" width="1007" height="327" fill="white" fill-opacity="0.01" style="mix-blend-mode:multiply"/>
<rect x="48.5" y="72.5" width="1007" height="327" stroke="#0F62FE"/>
<rect id="Background white_3" x="49" y="73" width="1006" height="326" fill="white"/>
<rect id="Background color_2" x="49" y="73" width="1006" height="326" fill="#EDF5FF"/>
<g id="Content_3" clip-path="url(#clip2_473_6196)">
<g id="Label + Text_3">
<path id="Label_3" d="M106.996 97.234V101H105.148V91.228H109.558C111.336 91.228 112.442 92.404 112.442 94.252C112.442 95.596 111.826 96.618 110.622 97.024L112.624 101H110.566L108.746 97.234H106.996ZM106.996 95.68H109.376C110.09 95.68 110.524 95.288 110.524 94.574V93.93C110.524 93.216 110.09 92.838 109.376 92.838H106.996V95.68ZM117.242 101.168C115.086 101.168 113.798 99.67 113.798 97.332C113.798 95.022 115.044 93.524 117.186 93.524C119.468 93.524 120.518 95.204 120.518 97.206V97.794H115.66V97.976C115.66 99.026 116.262 99.74 117.438 99.74C118.32 99.74 118.852 99.32 119.3 98.746L120.266 99.824C119.664 100.65 118.6 101.168 117.242 101.168ZM117.214 94.868C116.276 94.868 115.66 95.568 115.66 96.576V96.688H118.656V96.562C118.656 95.554 118.138 94.868 117.214 94.868ZM128.848 101.616C128.848 103.142 127.812 103.968 125.012 103.968C122.548 103.968 121.61 103.324 121.61 102.246C121.61 101.434 122.1 100.972 122.912 100.846V100.692C122.31 100.538 121.974 100.062 121.974 99.474C121.974 98.718 122.618 98.34 123.318 98.186V98.13C122.436 97.724 121.988 96.968 121.988 96.002C121.988 94.518 123.038 93.524 125.012 93.524C125.46 93.524 125.922 93.58 126.286 93.706V93.468C126.286 92.754 126.65 92.404 127.322 92.404H128.456V93.776H126.902V93.972C127.658 94.392 128.036 95.106 128.036 96.002C128.036 97.472 127 98.452 125.012 98.452C124.592 98.452 124.214 98.41 123.892 98.326C123.612 98.452 123.374 98.662 123.374 98.984C123.374 99.348 123.682 99.53 124.326 99.53H126.286C128.078 99.53 128.848 100.3 128.848 101.616ZM127.168 101.826C127.168 101.364 126.832 101.084 125.922 101.084H123.43C123.164 101.28 123.052 101.546 123.052 101.84C123.052 102.4 123.472 102.736 124.592 102.736H125.488C126.65 102.736 127.168 102.442 127.168 101.826ZM125.012 97.234C125.866 97.234 126.328 96.842 126.328 96.114V95.876C126.328 95.134 125.866 94.756 125.012 94.756C124.158 94.756 123.696 95.134 123.696 95.876V96.114C123.696 96.842 124.158 97.234 125.012 97.234ZM130.939 92.628C130.197 92.628 129.889 92.25 129.889 91.732V91.452C129.889 90.934 130.197 90.556 130.939 90.556C131.667 90.556 131.989 90.934 131.989 91.452V91.732C131.989 92.25 131.667 92.628 130.939 92.628ZM130.043 101V93.692H131.835V101H130.043ZM136.97 101.168C134.884 101.168 133.582 99.684 133.582 97.332C133.582 94.994 134.884 93.524 136.97 93.524C139.07 93.524 140.372 94.994 140.372 97.332C140.372 99.684 139.07 101.168 136.97 101.168ZM136.97 99.726C137.908 99.726 138.496 99.124 138.496 98.018V96.66C138.496 95.568 137.908 94.966 136.97 94.966C136.046 94.966 135.458 95.568 135.458 96.66V98.018C135.458 99.124 136.046 99.726 136.97 99.726ZM143.913 101H142.121V93.692H143.913V94.91H143.983C144.277 94.126 144.893 93.524 146.027 93.524C147.525 93.524 148.365 94.56 148.365 96.38V101H146.573V96.562C146.573 95.526 146.223 94.994 145.369 94.994C144.627 94.994 143.913 95.386 143.913 96.17V101Z" fill="black"/>
</g>
<g id="Icon_3">
<g id="Location_4">
<rect width="24" height="24" transform="translate(64 84)" fill="white" fill-opacity="0.01" style="mix-blend-mode:multiply"/>
<g id="Vector_3">
<path d="M76 97.5C75.2583 97.5 74.5333 97.2801 73.9166 96.868C73.2999 96.456 72.8193 95.8703 72.5355 95.1851C72.2516 94.4998 72.1774 93.7458 72.3221 93.0184C72.4668 92.291 72.8239 91.6228 73.3484 91.0983C73.8728 90.5739 74.541 90.2167 75.2684 90.0721C75.9958 89.9274 76.7498 90.0016 77.4351 90.2855C78.1203 90.5693 78.706 91.0499 79.118 91.6666C79.5301 92.2833 79.75 93.0083 79.75 93.75C79.7489 94.7442 79.3534 95.6974 78.6504 96.4004C77.9474 97.1034 76.9942 97.4989 76 97.5ZM76 91.5C75.555 91.5 75.12 91.632 74.75 91.8792C74.38 92.1264 74.0916 92.4778 73.9213 92.889C73.751 93.3001 73.7064 93.7525 73.7932 94.189C73.8801 94.6254 74.0943 95.0263 74.409 95.341C74.7237 95.6557 75.1246 95.87 75.5611 95.9568C75.9975 96.0436 76.4499 95.999 76.861 95.8287C77.2722 95.6584 77.6236 95.37 77.8708 95C78.118 94.63 78.25 94.195 78.25 93.75C78.2494 93.1535 78.0121 92.5815 77.5903 92.1597C77.1685 91.7379 76.5965 91.5007 76 91.5Z" fill="black"/>
<path d="M76 106.5L69.6734 99.0385C69.6375 98.9956 69.4122 98.6999 69.4122 98.6999C68.3314 97.2763 67.7475 95.5374 67.75 93.75C67.75 91.562 68.6192 89.4635 70.1664 87.9164C71.7136 86.3692 73.812 85.5 76 85.5C78.188 85.5 80.2865 86.3692 81.8336 87.9164C83.3808 89.4635 84.25 91.562 84.25 93.75C84.2527 95.5367 83.6692 97.2749 82.5889 98.698L82.5878 98.6999C82.5878 98.6999 82.3628 98.9956 82.3293 99.0354L76 106.5ZM70.6094 97.7963C70.6094 97.7963 70.7844 98.0274 70.8243 98.077L76 104.181L81.1825 98.0684C81.2154 98.027 81.3916 97.7942 81.3916 97.7942C82.2746 96.631 82.7517 95.2103 82.75 93.75C82.75 91.9598 82.0388 90.2429 80.773 88.977C79.5071 87.7112 77.7902 87 76 87C74.2098 87 72.4929 87.7112 71.227 88.977C69.9612 90.2429 69.25 91.9598 69.25 93.75C69.2483 95.2111 69.7259 96.6325 70.6094 97.7963Z" fill="black"/>
</g>
</g>
</g>
<line id="Border_2" x1="50" y1="72" x2="50" y2="120" stroke="#0F62FE" stroke-width="4"/>
</g>
</g>
<g id="Location_5">
<rect x="48.5" y="432.5" width="1007" height="327" fill="white" fill-opacity="0.01" style="mix-blend-mode:multiply"/>
<rect x="48.5" y="432.5" width="1007" height="327" stroke="#0F62FE"/>
<rect id="Background white_4" x="49" y="433" width="1006" height="326" fill="white"/>
<rect id="Background color_3" x="49" y="433" width="1006" height="326" fill="#EDF5FF"/>
<g id="Content_4" clip-path="url(#clip3_473_6196)">
<g id="Label + Text_4">
<path id="Label_4" d="M106.996 457.234V461H105.148V451.228H109.558C111.336 451.228 112.442 452.404 112.442 454.252C112.442 455.596 111.826 456.618 110.622 457.024L112.624 461H110.566L108.746 457.234H106.996ZM106.996 455.68H109.376C110.09 455.68 110.524 455.288 110.524 454.574V453.93C110.524 453.216 110.09 452.838 109.376 452.838H106.996V455.68ZM117.242 461.168C115.086 461.168 113.798 459.67 113.798 457.332C113.798 455.022 115.044 453.524 117.186 453.524C119.468 453.524 120.518 455.204 120.518 457.206V457.794H115.66V457.976C115.66 459.026 116.262 459.74 117.438 459.74C118.32 459.74 118.852 459.32 119.3 458.746L120.266 459.824C119.664 460.65 118.6 461.168 117.242 461.168ZM117.214 454.868C116.276 454.868 115.66 455.568 115.66 456.576V456.688H118.656V456.562C118.656 455.554 118.138 454.868 117.214 454.868ZM128.848 461.616C128.848 463.142 127.812 463.968 125.012 463.968C122.548 463.968 121.61 463.324 121.61 462.246C121.61 461.434 122.1 460.972 122.912 460.846V460.692C122.31 460.538 121.974 460.062 121.974 459.474C121.974 458.718 122.618 458.34 123.318 458.186V458.13C122.436 457.724 121.988 456.968 121.988 456.002C121.988 454.518 123.038 453.524 125.012 453.524C125.46 453.524 125.922 453.58 126.286 453.706V453.468C126.286 452.754 126.65 452.404 127.322 452.404H128.456V453.776H126.902V453.972C127.658 454.392 128.036 455.106 128.036 456.002C128.036 457.472 127 458.452 125.012 458.452C124.592 458.452 124.214 458.41 123.892 458.326C123.612 458.452 123.374 458.662 123.374 458.984C123.374 459.348 123.682 459.53 124.326 459.53H126.286C128.078 459.53 128.848 460.3 128.848 461.616ZM127.168 461.826C127.168 461.364 126.832 461.084 125.922 461.084H123.43C123.164 461.28 123.052 461.546 123.052 461.84C123.052 462.4 123.472 462.736 124.592 462.736H125.488C126.65 462.736 127.168 462.442 127.168 461.826ZM125.012 457.234C125.866 457.234 126.328 456.842 126.328 456.114V455.876C126.328 455.134 125.866 454.756 125.012 454.756C124.158 454.756 123.696 455.134 123.696 455.876V456.114C123.696 456.842 124.158 457.234 125.012 457.234ZM130.939 452.628C130.197 452.628 129.889 452.25 129.889 451.732V451.452C129.889 450.934 130.197 450.556 130.939 450.556C131.667 450.556 131.989 450.934 131.989 451.452V451.732C131.989 452.25 131.667 452.628 130.939 452.628ZM130.043 461V453.692H131.835V461H130.043ZM136.97 461.168C134.884 461.168 133.582 459.684 133.582 457.332C133.582 454.994 134.884 453.524 136.97 453.524C139.07 453.524 140.372 454.994 140.372 457.332C140.372 459.684 139.07 461.168 136.97 461.168ZM136.97 459.726C137.908 459.726 138.496 459.124 138.496 458.018V456.66C138.496 455.568 137.908 454.966 136.97 454.966C136.046 454.966 135.458 455.568 135.458 456.66V458.018C135.458 459.124 136.046 459.726 136.97 459.726ZM143.913 461H142.121V453.692H143.913V454.91H143.983C144.277 454.126 144.893 453.524 146.027 453.524C147.525 453.524 148.365 454.56 148.365 456.38V461H146.573V456.562C146.573 455.526 146.223 454.994 145.369 454.994C144.627 454.994 143.913 455.386 143.913 456.17V461Z" fill="black"/>
</g>
<g id="Icon_4">
<g id="Location_6">
<rect width="24" height="24" transform="translate(64 444)" fill="white" fill-opacity="0.01" style="mix-blend-mode:multiply"/>
<g id="Vector_4">
<path d="M76 457.5C75.2583 457.5 74.5333 457.28 73.9166 456.868C73.2999 456.456 72.8193 455.87 72.5355 455.185C72.2516 454.5 72.1774 453.746 72.3221 453.018C72.4668 452.291 72.8239 451.623 73.3484 451.098C73.8728 450.574 74.541 450.217 75.2684 450.072C75.9958 449.927 76.7498 450.002 77.4351 450.285C78.1203 450.569 78.706 451.05 79.118 451.667C79.5301 452.283 79.75 453.008 79.75 453.75C79.7489 454.744 79.3534 455.697 78.6504 456.4C77.9474 457.103 76.9942 457.499 76 457.5ZM76 451.5C75.555 451.5 75.12 451.632 74.75 451.879C74.38 452.126 74.0916 452.478 73.9213 452.889C73.751 453.3 73.7064 453.752 73.7932 454.189C73.8801 454.625 74.0943 455.026 74.409 455.341C74.7237 455.656 75.1246 455.87 75.5611 455.957C75.9975 456.044 76.4499 455.999 76.861 455.829C77.2722 455.658 77.6236 455.37 77.8708 455C78.118 454.63 78.25 454.195 78.25 453.75C78.2494 453.153 78.0121 452.582 77.5903 452.16C77.1685 451.738 76.5965 451.501 76 451.5Z" fill="black"/>
<path d="M76 466.5L69.6734 459.038C69.6375 458.996 69.4122 458.7 69.4122 458.7C68.3314 457.276 67.7475 455.537 67.75 453.75C67.75 451.562 68.6192 449.464 70.1664 447.916C71.7136 446.369 73.812 445.5 76 445.5C78.188 445.5 80.2865 446.369 81.8336 447.916C83.3808 449.464 84.25 451.562 84.25 453.75C84.2527 455.537 83.6692 457.275 82.5889 458.698L82.5878 458.7C82.5878 458.7 82.3628 458.996 82.3293 459.035L76 466.5ZM70.6094 457.796C70.6094 457.796 70.7844 458.027 70.8243 458.077L76 464.181L81.1825 458.068C81.2154 458.027 81.3916 457.794 81.3916 457.794C82.2746 456.631 82.7517 455.21 82.75 453.75C82.75 451.96 82.0388 450.243 80.773 448.977C79.5071 447.711 77.7902 447 76 447C74.2098 447 72.4929 447.711 71.227 448.977C69.9612 450.243 69.25 451.96 69.25 453.75C69.2483 455.211 69.7259 456.632 70.6094 457.796Z" fill="black"/>
</g>
</g>
</g>
<line id="Border_3" x1="50" y1="432" x2="50" y2="480" stroke="#0F62FE" stroke-width="4"/>
</g>
</g>
<g id="Frame 5">
<g id="Frame 4">
<g id="Location_7">
<rect width="216" height="232" transform="translate(96 136)" fill="white"/>
<rect id="Background white_5" x="96" y="136" width="216" height="232" fill="white"/>
<g id="Content_5" clip-path="url(#clip4_473_6196)">
<g id="Label + Text_5">
<path id="Label_5" d="M161.114 165H159.196L158.412 162.508H154.94L154.17 165H152.294L155.57 155.228H157.866L161.114 165ZM157.964 160.926L156.704 156.908H156.634L155.388 160.926H157.964ZM165.915 165H163.787L161.351 157.692H163.115L164.137 160.842L164.851 163.446H164.949L165.663 160.842L166.657 157.692H168.365L165.915 165ZM171.404 165.168C169.92 165.168 169.08 164.314 169.08 163.012C169.08 161.514 170.214 160.772 172.202 160.772H173.448V160.24C173.448 159.428 173.042 158.952 172.09 158.952C171.25 158.952 170.774 159.372 170.424 159.876L169.36 158.924C169.892 158.084 170.746 157.524 172.216 157.524C174.19 157.524 175.24 158.462 175.24 160.128V163.572H175.968V165H174.974C174.204 165 173.728 164.496 173.616 163.74H173.532C173.294 164.678 172.496 165.168 171.404 165.168ZM172.006 163.866C172.804 163.866 173.448 163.502 173.448 162.816V161.85H172.3C171.362 161.85 170.9 162.172 170.9 162.746V162.984C170.9 163.572 171.306 163.866 172.006 163.866ZM178.474 156.628C177.732 156.628 177.424 156.25 177.424 155.732V155.452C177.424 154.934 177.732 154.556 178.474 154.556C179.202 154.556 179.524 154.934 179.524 155.452V155.732C179.524 156.25 179.202 156.628 178.474 156.628ZM177.578 165V157.692H179.37V165H177.578ZM184.366 165H183.4C182.182 165 181.608 164.356 181.608 163.236V154.64H183.4V163.572H184.366V165ZM187.689 165.168C186.205 165.168 185.365 164.314 185.365 163.012C185.365 161.514 186.499 160.772 188.487 160.772H189.733V160.24C189.733 159.428 189.327 158.952 188.375 158.952C187.535 158.952 187.059 159.372 186.709 159.876L185.645 158.924C186.177 158.084 187.031 157.524 188.501 157.524C190.475 157.524 191.525 158.462 191.525 160.128V163.572H192.253V165H191.259C190.489 165 190.013 164.496 189.901 163.74H189.817C189.579 164.678 188.781 165.168 187.689 165.168ZM188.291 163.866C189.089 163.866 189.733 163.502 189.733 162.816V161.85H188.585C187.647 161.85 187.185 162.172 187.185 162.746V162.984C187.185 163.572 187.591 163.866 188.291 163.866ZM193.863 165V154.64H195.655V158.896H195.711C195.977 158.056 196.761 157.524 197.727 157.524C199.575 157.524 200.597 158.896 200.597 161.332C200.597 163.782 199.575 165.168 197.727 165.168C196.761 165.168 195.991 164.608 195.711 163.782H195.655V165H193.863ZM197.153 163.684C198.077 163.684 198.721 163.012 198.721 161.976V160.716C198.721 159.68 198.077 158.994 197.153 158.994C196.299 158.994 195.655 159.456 195.655 160.17V162.494C195.655 163.25 196.299 163.684 197.153 163.684ZM203.314 156.628C202.572 156.628 202.264 156.25 202.264 155.732V155.452C202.264 154.934 202.572 154.556 203.314 154.556C204.042 154.556 204.364 154.934 204.364 155.452V155.732C204.364 156.25 204.042 156.628 203.314 156.628ZM202.418 165V157.692H204.21V165H202.418ZM209.205 165H208.239C207.021 165 206.447 164.356 206.447 163.236V154.64H208.239V163.572H209.205V165ZM211.618 156.628C210.876 156.628 210.568 156.25 210.568 155.732V155.452C210.568 154.934 210.876 154.556 211.618 154.556C212.346 154.556 212.668 154.934 212.668 155.452V155.732C212.668 156.25 212.346 156.628 211.618 156.628ZM210.722 165V157.692H212.514V165H210.722ZM217.033 165C215.801 165 215.143 164.328 215.143 163.138V159.12H214.065V157.692H214.625C215.157 157.692 215.325 157.44 215.325 156.936V155.69H216.935V157.692H218.433V159.12H216.935V163.572H218.321V165H217.033ZM223.354 161.556L224.628 157.692H226.308L223.368 166.302C223.004 167.352 222.486 167.8 221.282 167.8H220.204V166.372H221.52L221.856 165.35L219.238 157.692H221.016L222.29 161.556L222.766 163.404H222.85L223.354 161.556ZM236.592 165H230.6V163.572L234.394 159.106H230.726V157.692H236.494V159.078L232.672 163.572H236.592V165ZM241.053 165.168C238.967 165.168 237.665 163.684 237.665 161.332C237.665 158.994 238.967 157.524 241.053 157.524C243.153 157.524 244.455 158.994 244.455 161.332C244.455 163.684 243.153 165.168 241.053 165.168ZM241.053 163.726C241.991 163.726 242.579 163.124 242.579 162.018V160.66C242.579 159.568 241.991 158.966 241.053 158.966C240.129 158.966 239.541 159.568 239.541 160.66V162.018C239.541 163.124 240.129 163.726 241.053 163.726ZM247.996 165H246.204V157.692H247.996V158.91H248.066C248.36 158.126 248.976 157.524 250.11 157.524C251.608 157.524 252.448 158.56 252.448 160.38V165H250.656V160.562C250.656 159.526 250.306 158.994 249.452 158.994C248.71 158.994 247.996 159.386 247.996 160.17V165ZM257.548 165.168C255.392 165.168 254.104 163.67 254.104 161.332C254.104 159.022 255.35 157.524 257.492 157.524C259.774 157.524 260.824 159.204 260.824 161.206V161.794H255.966V161.976C255.966 163.026 256.568 163.74 257.744 163.74C258.626 163.74 259.158 163.32 259.606 162.746L260.572 163.824C259.97 164.65 258.906 165.168 257.548 165.168ZM257.52 158.868C256.582 158.868 255.966 159.568 255.966 160.576V160.688H258.962V160.562C258.962 159.554 258.444 158.868 257.52 158.868ZM273.001 165H266.267V163.502H268.955V156.558H268.829L266.701 159.078L265.553 158.112L267.975 155.228H270.761V163.502H273.001V165Z" fill="black"/>
</g>
<g id="Icon_5">
<g id="Data--center">
<rect width="24" height="24" transform="translate(112 148)" fill="white" fill-opacity="0.01" style="mix-blend-mode:multiply"/>
<g id="Vector_5">
<path d="M133 155.5H129.25V152.5C129.25 152.102 129.091 151.721 128.81 151.44C128.529 151.159 128.148 151 127.75 151H120.25C119.852 151 119.471 151.159 119.19 151.44C118.909 151.721 118.75 152.102 118.75 152.5V155.5H115C114.602 155.5 114.221 155.659 113.94 155.94C113.659 156.221 113.5 156.602 113.5 157V169C113.5 169.398 113.659 169.779 113.94 170.06C114.221 170.341 114.602 170.5 115 170.5H133C133.398 170.5 133.779 170.341 134.06 170.06C134.341 169.779 134.5 169.398 134.5 169V157C134.5 156.602 134.341 156.221 134.06 155.94C133.779 155.659 133.398 155.5 133 155.5ZM115 169V157H118.75V158.5H117.25V160H118.75V161.5H117.25V163H118.75V164.5H117.25V166H118.75V169H115ZM127.75 169H120.25V152.5H127.75V169ZM133 169H129.25V166H130.75V164.5H129.25V163H130.75V161.5H129.25V160H130.75V158.5H129.25V157H133V169Z" fill="black"/>
<path d="M125.5 154H122.5V155.5H125.5V154Z" fill="black"/>
<path d="M125.5 157H122.5V158.5H125.5V157Z" fill="black"/>
<path d="M125.5 160H122.5V161.5H125.5V160Z" fill="black"/>
</g>
</g>
</g>
</g>
<path id="Dash border" d="M102 136V136.5H106V136H110V136.5H114V136H118V136.5H122V136H126V136.5H130V136H134V136.5H138V136H142V136.5H146V136H150V136.5H154V136H158V136.5H162V136H166V136.5H170V136H174V136.5H178V136H182V136.5H186V136H190V136.5H194V136H198V136.5H202V136H206V136.5H210V136H214V136.5H218V136H222V136.5H226V136H230V136.5H234V136H238V136.5H242V136H246V136.5H250V136H254V136.5H258V136H262V136.5H266V136H270V136.5H274V136H278V136.5H282V136H286V136.5H290V136H294V136.5H298V136H302V136.5H306V136H310V136.5H311.5V138H312V142H311.5V146H312V150H311.5V154H312V158H311.5V162H312V166H311.5V170H312V174H311.5V178H312V182H311.5V186H312V190H311.5V194H312V198H311.5V202H312V206H311.5V210H312V214H311.5V218H312V222H311.5V226H312V230H311.5V234H312V238H311.5V242H312V246H311.5V250H312V254H311.5V258H312V262H311.5V266H312V270H311.5V274H312V278H311.5V282H312V286H311.5V290H312V294H311.5V298H312V302H311.5V306H312V310H311.5V314H312V318H311.5V322H312V326H311.5V330H312V334H311.5V338H312V342H311.5V346H312V350H311.5V354H312V358H311.5V362H312V366H311.5V367.5H310V368H306V367.5H302V368H298V367.5H294V368H290V367.5H286V368H282V367.5H278V368H274V367.5H270V368H266V367.5H262V368H258V367.5H254V368H250V367.5H246V368H242V367.5H238V368H234V367.5H230V368H226V367.5H222V368H218V367.5H214V368H210V367.5H206V368H202V367.5H198V368H194V367.5H190V368H186V367.5H182V368H178V367.5H174V368H170V367.5H166V368H162V367.5H158V368H154V367.5H150V368H146V367.5H142V368H138V367.5H134V368H130V367.5H126V368H122V367.5H118V368H114V367.5H110V368H106V367.5H102V368H98V367.5H96.5V366H96V362H96.5V358H96V354H96.5V350H96V346H96.5V342H96V338H96.5V334H96V330H96.5V326H96V322H96.5V318H96V314H96.5V310H96V306H96.5V302H96V298H96.5V294H96V290H96.5V286H96V282H96.5V278H96V274H96.5V270H96V266H96.5V262H96V258H96.5V254H96V250H96.5V246H96V242H96.5V238H96V234H96.5V230H96V226H96.5V222H96V218H96.5V214H96V210H96.5V206H96V202H96.5V198H96V194H96.5V190H96V186H96.5V182H96V178H96.5V174H96V170H96.5V166H96V162H96.5V158H96V154H96.5V150H96V146H96.5V142H96V138H96.5V136.5H98V136H102Z" stroke="black" stroke-dasharray="4 4"/>
</g>
<g id="Control plane">
<rect width="80" height="92" transform="translate(160 224)" fill="white" fill-opacity="0.01" style="mix-blend-mode:multiply"/>
<g id="Icon_6">
<path id="Background color_4" d="M184 224H216C220.418 224 224 227.582 224 232V264C224 268.418 220.418 272 216 272H184C179.582 272 176 268.418 176 264V232C176 227.582 179.582 224 184 224Z" fill="#0F62FE"/>
<g id="Database--mongodb">
<rect width="24" height="24" transform="translate(188 236)" fill="white" fill-opacity="0.01"/>
<g id="Vector_6">
<path d="M207.011 257.656C203.976 257.656 202.82 256.863 202.82 255.535C202.811 255.316 202.846 255.098 202.922 254.892C202.998 254.687 203.114 254.499 203.263 254.338C203.412 254.178 203.591 254.049 203.791 253.958C203.99 253.867 204.205 253.817 204.424 253.81V253.62C204.087 253.545 203.786 253.353 203.575 253.079C203.364 252.805 203.256 252.466 203.269 252.12C203.269 251.189 204.062 250.723 204.924 250.533V250.464C204.417 250.246 203.988 249.878 203.696 249.409C203.403 248.941 203.26 248.395 203.286 247.843C203.286 246.015 204.579 244.79 207.011 244.79C207.543 244.781 208.072 244.857 208.58 245.015V244.722C208.554 244.547 208.569 244.368 208.623 244.199C208.678 244.031 208.77 243.877 208.894 243.751C209.018 243.624 209.169 243.527 209.336 243.468C209.503 243.409 209.681 243.39 209.857 243.411H211.253V245.101H209.339V245.343C209.784 245.586 210.15 245.95 210.398 246.392C210.645 246.834 210.762 247.337 210.736 247.843C210.736 249.654 209.46 250.861 207.011 250.861C206.547 250.868 206.083 250.816 205.632 250.706C205.457 250.762 205.302 250.869 205.188 251.014C205.075 251.158 205.007 251.333 204.993 251.517C204.993 251.965 205.373 252.189 206.166 252.189H208.58C210.788 252.189 211.736 253.138 211.736 254.759C211.736 256.639 210.46 257.656 207.011 257.656ZM208.132 254.103H205.062C204.914 254.208 204.794 254.348 204.713 254.511C204.632 254.673 204.592 254.853 204.597 255.035C204.597 255.725 205.114 256.138 206.494 256.138H207.597C209.029 256.138 209.667 255.776 209.667 255.017C209.667 254.448 209.253 254.103 208.132 254.103ZM208.632 247.981V247.688C208.632 246.774 208.063 246.308 207.011 246.308C205.959 246.308 205.39 246.773 205.39 247.688V247.981C205.39 248.878 205.959 249.361 207.011 249.361C208.063 249.361 208.632 248.877 208.632 247.981Z" fill="white"/>
<path d="M189.676 241.962H192.245L195.332 247.843H195.401L198.454 241.962H200.92V254H198.764V245.36H198.696L197.764 247.274L195.298 251.826L192.832 247.274L191.901 245.36H191.831V254H189.676V241.962Z" fill="white"/>
</g>
</g>
</g>
<g id="Label + Text_6">
<path id="Label_6" d="M169.708 294V284.228H171.794L174.3 289.002H174.356L176.834 284.228H178.836V294H177.086V286.986H177.03L176.274 288.54L174.272 292.236L172.27 288.54L171.514 286.986H171.458V294H169.708ZM184.084 294.168C181.998 294.168 180.696 292.684 180.696 290.332C180.696 287.994 181.998 286.524 184.084 286.524C186.184 286.524 187.486 287.994 187.486 290.332C187.486 292.684 186.184 294.168 184.084 294.168ZM184.084 292.726C185.022 292.726 185.61 292.124 185.61 291.018V289.66C185.61 288.568 185.022 287.966 184.084 287.966C183.16 287.966 182.572 288.568 182.572 289.66V291.018C182.572 292.124 183.16 292.726 184.084 292.726ZM191.026 294H189.234V286.692H191.026V287.91H191.096C191.39 287.126 192.006 286.524 193.14 286.524C194.638 286.524 195.478 287.56 195.478 289.38V294H193.686V289.562C193.686 288.526 193.336 287.994 192.482 287.994C191.74 287.994 191.026 288.386 191.026 289.17V294ZM204.219 294.616C204.219 296.142 203.183 296.968 200.383 296.968C197.919 296.968 196.981 296.324 196.981 295.246C196.981 294.434 197.471 293.972 198.283 293.846V293.692C197.681 293.538 197.345 293.062 197.345 292.474C197.345 291.718 197.989 291.34 198.689 291.186V291.13C197.807 290.724 197.359 289.968 197.359 289.002C197.359 287.518 198.409 286.524 200.383 286.524C200.831 286.524 201.293 286.58 201.657 286.706V286.468C201.657 285.754 202.021 285.404 202.693 285.404H203.827V286.776H202.273V286.972C203.029 287.392 203.407 288.106 203.407 289.002C203.407 290.472 202.371 291.452 200.383 291.452C199.963 291.452 199.585 291.41 199.263 291.326C198.983 291.452 198.745 291.662 198.745 291.984C198.745 292.348 199.053 292.53 199.697 292.53H201.657C203.449 292.53 204.219 293.3 204.219 294.616ZM202.539 294.826C202.539 294.364 202.203 294.084 201.293 294.084H198.801C198.535 294.28 198.423 294.546 198.423 294.84C198.423 295.4 198.843 295.736 199.963 295.736H200.859C202.021 295.736 202.539 295.442 202.539 294.826ZM200.383 290.234C201.237 290.234 201.699 289.842 201.699 289.114V288.876C201.699 288.134 201.237 287.756 200.383 287.756C199.529 287.756 199.067 288.134 199.067 288.876V289.114C199.067 289.842 199.529 290.234 200.383 290.234ZM208.23 294.168C206.144 294.168 204.842 292.684 204.842 290.332C204.842 287.994 206.144 286.524 208.23 286.524C210.33 286.524 211.632 287.994 211.632 290.332C211.632 292.684 210.33 294.168 208.23 294.168ZM208.23 292.726C209.168 292.726 209.756 292.124 209.756 291.018V289.66C209.756 288.568 209.168 287.966 208.23 287.966C207.306 287.966 206.718 288.568 206.718 289.66V291.018C206.718 292.124 207.306 292.726 208.23 292.726ZM213.492 294V284.228H217.048C219.596 284.228 221.262 285.866 221.262 289.114C221.262 292.362 219.596 294 217.048 294H213.492ZM215.34 292.362H217.048C218.42 292.362 219.302 291.55 219.302 289.884V288.344C219.302 286.678 218.42 285.866 217.048 285.866H215.34V292.362ZM223.305 294V284.228H227.827C229.437 284.228 230.417 285.222 230.417 286.734C230.417 288.218 229.563 288.778 228.667 288.834V288.918C229.521 288.932 230.781 289.534 230.781 291.2C230.781 292.768 229.703 294 228.261 294H223.305ZM225.153 289.814V292.432H227.729C228.429 292.432 228.849 292.054 228.849 291.368V290.892C228.849 290.206 228.429 289.814 227.729 289.814H225.153ZM225.153 285.796V288.302H227.435C228.107 288.302 228.499 287.91 228.499 287.266V286.832C228.499 286.174 228.107 285.796 227.435 285.796H225.153ZM176.82 312H174.972V302.228H179.368C181.174 302.228 182.266 303.446 182.266 305.252C182.266 307.072 181.174 308.276 179.368 308.276H176.82V312ZM176.82 303.838V306.68H179.2C179.914 306.68 180.348 306.288 180.348 305.574V304.93C180.348 304.216 179.914 303.838 179.2 303.838H176.82ZM185.644 312H183.852V304.692H185.644V306.204H185.714C185.896 305.434 186.484 304.692 187.646 304.692H188.038V306.386H187.478C186.274 306.386 185.644 306.722 185.644 307.52V312ZM190.404 303.628C189.662 303.628 189.354 303.25 189.354 302.732V302.452C189.354 301.934 189.662 301.556 190.404 301.556C191.132 301.556 191.454 301.934 191.454 302.452V302.732C191.454 303.25 191.132 303.628 190.404 303.628ZM189.508 312V304.692H191.3V312H189.508ZM195.329 312H193.537V304.692H195.329V305.91H195.399C195.679 305.14 196.267 304.524 197.359 304.524C198.353 304.524 199.123 305.014 199.473 305.994H199.501C199.767 305.182 200.579 304.524 201.741 304.524C203.169 304.524 203.981 305.56 203.981 307.38V312H202.189V307.562C202.189 306.512 201.811 305.994 201.013 305.994C200.313 305.994 199.655 306.386 199.655 307.17V312H197.863V307.562C197.863 306.512 197.485 305.994 196.687 305.994C196.001 305.994 195.329 306.386 195.329 307.17V312ZM207.931 312.168C206.447 312.168 205.607 311.314 205.607 310.012C205.607 308.514 206.741 307.772 208.729 307.772H209.975V307.24C209.975 306.428 209.569 305.952 208.617 305.952C207.777 305.952 207.301 306.372 206.951 306.876L205.887 305.924C206.419 305.084 207.273 304.524 208.743 304.524C210.717 304.524 211.767 305.462 211.767 307.128V310.572H212.495V312H211.501C210.731 312 210.255 311.496 210.143 310.74H210.059C209.821 311.678 209.023 312.168 207.931 312.168ZM208.533 310.866C209.331 310.866 209.975 310.502 209.975 309.816V308.85H208.827C207.889 308.85 207.427 309.172 207.427 309.746V309.984C207.427 310.572 207.833 310.866 208.533 310.866ZM215.897 312H214.105V304.692H215.897V306.204H215.967C216.149 305.434 216.737 304.692 217.899 304.692H218.291V306.386H217.731C216.527 306.386 215.897 306.722 215.897 307.52V312ZM223.076 308.556L224.35 304.692H226.03L223.09 313.302C222.726 314.352 222.208 314.8 221.004 314.8H219.926V313.372H221.242L221.578 312.35L218.96 304.692H220.738L222.012 308.556L222.488 310.404H222.572L223.076 308.556Z" fill="black"/>
</g>
</g>
</g>
<g id="Frame 5_2">
<g id="Location_8">
<rect width="216" height="232" transform="translate(328 136)" fill="white"/>
<rect id="Background white_6" x="328" y="136" width="216" height="232" fill="white"/>
<g id="Content_6" clip-path="url(#clip5_473_6196)">
<g id="Label + Text_7">
<path id="Label_7" d="M393.114 165H391.196L390.412 162.508H386.94L386.17 165H384.294L387.57 155.228H389.866L393.114 165ZM389.964 160.926L388.704 156.908H388.634L387.388 160.926H389.964ZM397.915 165H395.787L393.351 157.692H395.115L396.137 160.842L396.851 163.446H396.949L397.663 160.842L398.657 157.692H400.365L397.915 165ZM403.404 165.168C401.92 165.168 401.08 164.314 401.08 163.012C401.08 161.514 402.214 160.772 404.202 160.772H405.448V160.24C405.448 159.428 405.042 158.952 404.09 158.952C403.25 158.952 402.774 159.372 402.424 159.876L401.36 158.924C401.892 158.084 402.746 157.524 404.216 157.524C406.19 157.524 407.24 158.462 407.24 160.128V163.572H407.968V165H406.974C406.204 165 405.728 164.496 405.616 163.74H405.532C405.294 164.678 404.496 165.168 403.404 165.168ZM404.006 163.866C404.804 163.866 405.448 163.502 405.448 162.816V161.85H404.3C403.362 161.85 402.9 162.172 402.9 162.746V162.984C402.9 163.572 403.306 163.866 404.006 163.866ZM410.474 156.628C409.732 156.628 409.424 156.25 409.424 155.732V155.452C409.424 154.934 409.732 154.556 410.474 154.556C411.202 154.556 411.524 154.934 411.524 155.452V155.732C411.524 156.25 411.202 156.628 410.474 156.628ZM409.578 165V157.692H411.37V165H409.578ZM416.366 165H415.4C414.182 165 413.608 164.356 413.608 163.236V154.64H415.4V163.572H416.366V165ZM419.689 165.168C418.205 165.168 417.365 164.314 417.365 163.012C417.365 161.514 418.499 160.772 420.487 160.772H421.733V160.24C421.733 159.428 421.327 158.952 420.375 158.952C419.535 158.952 419.059 159.372 418.709 159.876L417.645 158.924C418.177 158.084 419.031 157.524 420.501 157.524C422.475 157.524 423.525 158.462 423.525 160.128V163.572H424.253V165H423.259C422.489 165 422.013 164.496 421.901 163.74H421.817C421.579 164.678 420.781 165.168 419.689 165.168ZM420.291 163.866C421.089 163.866 421.733 163.502 421.733 162.816V161.85H420.585C419.647 161.85 419.185 162.172 419.185 162.746V162.984C419.185 163.572 419.591 163.866 420.291 163.866ZM425.863 165V154.64H427.655V158.896H427.711C427.977 158.056 428.761 157.524 429.727 157.524C431.575 157.524 432.597 158.896 432.597 161.332C432.597 163.782 431.575 165.168 429.727 165.168C428.761 165.168 427.991 164.608 427.711 163.782H427.655V165H425.863ZM429.153 163.684C430.077 163.684 430.721 163.012 430.721 161.976V160.716C430.721 159.68 430.077 158.994 429.153 158.994C428.299 158.994 427.655 159.456 427.655 160.17V162.494C427.655 163.25 428.299 163.684 429.153 163.684ZM435.314 156.628C434.572 156.628 434.264 156.25 434.264 155.732V155.452C434.264 154.934 434.572 154.556 435.314 154.556C436.042 154.556 436.364 154.934 436.364 155.452V155.732C436.364 156.25 436.042 156.628 435.314 156.628ZM434.418 165V157.692H436.21V165H434.418ZM441.205 165H440.239C439.021 165 438.447 164.356 438.447 163.236V154.64H440.239V163.572H441.205V165ZM443.618 156.628C442.876 156.628 442.568 156.25 442.568 155.732V155.452C442.568 154.934 442.876 154.556 443.618 154.556C444.346 154.556 444.668 154.934 444.668 155.452V155.732C444.668 156.25 444.346 156.628 443.618 156.628ZM442.722 165V157.692H444.514V165H442.722ZM449.033 165C447.801 165 447.143 164.328 447.143 163.138V159.12H446.065V157.692H446.625C447.157 157.692 447.325 157.44 447.325 156.936V155.69H448.935V157.692H450.433V159.12H448.935V163.572H450.321V165H449.033ZM455.354 161.556L456.628 157.692H458.308L455.368 166.302C455.004 167.352 454.486 167.8 453.282 167.8H452.204V166.372H453.52L453.856 165.35L451.238 157.692H453.016L454.29 161.556L454.766 163.404H454.85L455.354 161.556ZM468.592 165H462.6V163.572L466.394 159.106H462.726V157.692H468.494V159.078L464.672 163.572H468.592V165ZM473.053 165.168C470.967 165.168 469.665 163.684 469.665 161.332C469.665 158.994 470.967 157.524 473.053 157.524C475.153 157.524 476.455 158.994 476.455 161.332C476.455 163.684 475.153 165.168 473.053 165.168ZM473.053 163.726C473.991 163.726 474.579 163.124 474.579 162.018V160.66C474.579 159.568 473.991 158.966 473.053 158.966C472.129 158.966 471.541 159.568 471.541 160.66V162.018C471.541 163.124 472.129 163.726 473.053 163.726ZM479.996 165H478.204V157.692H479.996V158.91H480.066C480.36 158.126 480.976 157.524 482.11 157.524C483.608 157.524 484.448 158.56 484.448 160.38V165H482.656V160.562C482.656 159.526 482.306 158.994 481.452 158.994C480.71 158.994 479.996 159.386 479.996 160.17V165ZM489.548 165.168C487.392 165.168 486.104 163.67 486.104 161.332C486.104 159.022 487.35 157.524 489.492 157.524C491.774 157.524 492.824 159.204 492.824 161.206V161.794H487.966V161.976C487.966 163.026 488.568 163.74 489.744 163.74C490.626 163.74 491.158 163.32 491.606 162.746L492.572 163.824C491.97 164.65 490.906 165.168 489.548 165.168ZM489.52 158.868C488.582 158.868 487.966 159.568 487.966 160.576V160.688H490.962V160.562C490.962 159.554 490.444 158.868 489.52 158.868ZM504.637 163.446V165H497.861V163.292L500.927 160.604C501.963 159.694 502.439 159.022 502.439 158.168V157.986C502.439 157.132 501.795 156.656 500.997 156.656C499.989 156.656 499.513 157.314 499.289 158.112L497.693 157.496C498.113 156.194 499.163 155.06 501.151 155.06C503.209 155.06 504.385 156.292 504.385 157.972C504.385 159.596 503.279 160.632 501.921 161.752L499.863 163.446H504.637Z" fill="black"/>
</g>
<g id="Icon_7">
<g id="Data--center_2">
<rect width="24" height="24" transform="translate(344 148)" fill="white" fill-opacity="0.01" style="mix-blend-mode:multiply"/>
<g id="Vector_7">
<path d="M365 155.5H361.25V152.5C361.25 152.102 361.091 151.721 360.81 151.44C360.529 151.159 360.148 151 359.75 151H352.25C351.852 151 351.471 151.159 351.19 151.44C350.909 151.721 350.75 152.102 350.75 152.5V155.5H347C346.602 155.5 346.221 155.659 345.94 155.94C345.659 156.221 345.5 156.602 345.5 157V169C345.5 169.398 345.659 169.779 345.94 170.06C346.221 170.341 346.602 170.5 347 170.5H365C365.398 170.5 365.779 170.341 366.06 170.06C366.341 169.779 366.5 169.398 366.5 169V157C366.5 156.602 366.341 156.221 366.06 155.94C365.779 155.659 365.398 155.5 365 155.5ZM347 169V157H350.75V158.5H349.25V160H350.75V161.5H349.25V163H350.75V164.5H349.25V166H350.75V169H347ZM359.75 169H352.25V152.5H359.75V169ZM365 169H361.25V166H362.75V164.5H361.25V163H362.75V161.5H361.25V160H362.75V158.5H361.25V157H365V169Z" fill="black"/>
<path d="M357.5 154H354.5V155.5H357.5V154Z" fill="black"/>
<path d="M357.5 157H354.5V158.5H357.5V157Z" fill="black"/>
<path d="M357.5 160H354.5V161.5H357.5V160Z" fill="black"/>
</g>
</g>
</g>
</g>
<path id="Dash border_2" d="M334 136V136.5H338V136H342V136.5H346V136H350V136.5H354V136H358V136.5H362V136H366V136.5H370V136H374V136.5H378V136H382V136.5H386V136H390V136.5H394V136H398V136.5H402V136H406V136.5H410V136H414V136.5H418V136H422V136.5H426V136H430V136.5H434V136H438V136.5H442V136H446V136.5H450V136H454V136.5H458V136H462V136.5H466V136H470V136.5H474V136H478V136.5H482V136H486V136.5H490V136H494V136.5H498V136H502V136.5H506V136H510V136.5H514V136H518V136.5H522V136H526V136.5H530V136H534V136.5H538V136H542V136.5H543.5V138H544V142H543.5V146H544V150H543.5V154H544V158H543.5V162H544V166H543.5V170H544V174H543.5V178H544V182H543.5V186H544V190H543.5V194H544V198H543.5V202H544V206H543.5V210H544V214H543.5V218H544V222H543.5V226H544V230H543.5V234H544V238H543.5V242H544V246H543.5V250H544V254H543.5V258H544V262H543.5V266H544V270H543.5V274H544V278H543.5V282H544V286H543.5V290H544V294H543.5V298H544V302H543.5V306H544V310H543.5V314H544V318H543.5V322H544V326H543.5V330H544V334H543.5V338H544V342H543.5V346H544V350H543.5V354H544V358H543.5V362H544V366H543.5V367.5H542V368H538V367.5H534V368H530V367.5H526V368H522V367.5H518V368H514V367.5H510V368H506V367.5H502V368H498V367.5H494V368H490V367.5H486V368H482V367.5H478V368H474V367.5H470V368H466V367.5H462V368H458V367.5H454V368H450V367.5H446V368H442V367.5H438V368H434V367.5H430V368H426V367.5H422V368H418V367.5H414V368H410V367.5H406V368H402V367.5H398V368H394V367.5H390V368H386V367.5H382V368H378V367.5H374V368H370V367.5H366V368H362V367.5H358V368H354V367.5H350V368H346V367.5H342V368H338V367.5H334V368H330V367.5H328.5V366H328V362H328.5V358H328V354H328.5V350H328V346H328.5V342H328V338H328.5V334H328V330H328.5V326H328V322H328.5V318H328V314H328.5V310H328V306H328.5V302H328V298H328.5V294H328V290H328.5V286H328V282H328.5V278H328V274H328.5V270H328V266H328.5V262H328V258H328.5V254H328V250H328.5V246H328V242H328.5V238H328V234H328.5V230H328V226H328.5V222H328V218H328.5V214H328V210H328.5V206H328V202H328.5V198H328V194H328.5V190H328V186H328.5V182H328V178H328.5V174H328V170H328.5V166H328V162H328.5V158H328V154H328.5V150H328V146H328.5V142H328V138H328.5V136.5H330V136H334Z" stroke="black" stroke-dasharray="4 4"/>
</g>
<g id="Control plane_2">
<rect width="80" height="74" transform="translate(392 224)" fill="white" fill-opacity="0.01" style="mix-blend-mode:multiply"/>
<g id="Icon_8">
<path id="Background color_5" d="M416 224H448C452.418 224 456 227.582 456 232V264C456 268.418 452.418 272 448 272H416C411.582 272 408 268.418 408 264V232C408 227.582 411.582 224 416 224Z" fill="#0F62FE"/>
<g id="Database--mongodb_2">
<rect width="24" height="24" transform="translate(420 236)" fill="white" fill-opacity="0.01"/>
<g id="Vector_8">
<path d="M439.011 257.656C435.976 257.656 434.82 256.863 434.82 255.535C434.811 255.316 434.846 255.098 434.922 254.892C434.998 254.687 435.114 254.499 435.263 254.338C435.412 254.178 435.591 254.049 435.791 253.958C435.99 253.867 436.205 253.817 436.424 253.81V253.62C436.087 253.545 435.786 253.353 435.575 253.079C435.364 252.805 435.256 252.466 435.269 252.12C435.269 251.189 436.062 250.723 436.924 250.533V250.464C436.417 250.246 435.988 249.878 435.696 249.409C435.403 248.941 435.26 248.395 435.286 247.843C435.286 246.015 436.579 244.79 439.011 244.79C439.543 244.781 440.072 244.857 440.58 245.015V244.722C440.554 244.547 440.569 244.368 440.623 244.199C440.678 244.031 440.77 243.877 440.894 243.751C441.018 243.624 441.169 243.527 441.336 243.468C441.503 243.409 441.681 243.39 441.857 243.411H443.253V245.101H441.339V245.343C441.784 245.586 442.15 245.95 442.398 246.392C442.645 246.834 442.762 247.337 442.736 247.843C442.736 249.654 441.46 250.861 439.011 250.861C438.547 250.868 438.083 250.816 437.632 250.706C437.457 250.762 437.302 250.869 437.188 251.014C437.075 251.158 437.007 251.333 436.993 251.517C436.993 251.965 437.373 252.189 438.166 252.189H440.58C442.788 252.189 443.736 253.138 443.736 254.759C443.736 256.639 442.46 257.656 439.011 257.656ZM440.132 254.103H437.062C436.914 254.208 436.794 254.348 436.713 254.511C436.632 254.673 436.592 254.853 436.597 255.035C436.597 255.725 437.114 256.138 438.494 256.138H439.597C441.029 256.138 441.667 255.776 441.667 255.017C441.667 254.448 441.253 254.103 440.132 254.103ZM440.632 247.981V247.688C440.632 246.774 440.063 246.308 439.011 246.308C437.959 246.308 437.39 246.773 437.39 247.688V247.981C437.39 248.878 437.959 249.361 439.011 249.361C440.063 249.361 440.632 248.877 440.632 247.981Z" fill="white"/>
<path d="M421.676 241.962H424.245L427.332 247.843H427.401L430.454 241.962H432.92V254H430.764V245.36H430.696L429.764 247.274L427.298 251.826L424.832 247.274L423.901 245.36H423.831V254H421.676V241.962Z" fill="white"/>
</g>
</g>
</g>
<g id="Label + Text_8">
<path id="Label_8" d="M404.367 290.234V294H402.519V284.228H406.929C408.707 284.228 409.813 285.404 409.813 287.252C409.813 288.596 409.197 289.618 407.993 290.024L409.995 294H407.937L406.117 290.234H404.367ZM404.367 288.68H406.747C407.461 288.68 407.895 288.288 407.895 287.574V286.93C407.895 286.216 407.461 285.838 406.747 285.838H404.367V288.68ZM414.613 294.168C412.457 294.168 411.169 292.67 411.169 290.332C411.169 288.022 412.415 286.524 414.557 286.524C416.839 286.524 417.889 288.204 417.889 290.206V290.794H413.031V290.976C413.031 292.026 413.633 292.74 414.809 292.74C415.691 292.74 416.223 292.32 416.671 291.746L417.637 292.824C417.035 293.65 415.971 294.168 414.613 294.168ZM414.585 287.868C413.647 287.868 413.031 288.568 413.031 289.576V289.688H416.027V289.562C416.027 288.554 415.509 287.868 414.585 287.868ZM419.625 296.8V286.692H421.417V287.896H421.473C421.739 287.056 422.523 286.524 423.489 286.524C425.337 286.524 426.359 287.896 426.359 290.332C426.359 292.782 425.337 294.168 423.489 294.168C422.523 294.168 421.753 293.608 421.473 292.782H421.417V296.8H419.625ZM422.915 292.684C423.839 292.684 424.483 292.012 424.483 290.976V289.716C424.483 288.68 423.839 287.994 422.915 287.994C422.061 287.994 421.417 288.456 421.417 289.17V291.494C421.417 292.25 422.061 292.684 422.915 292.684ZM430.938 294H429.972C428.754 294 428.18 293.356 428.18 292.236V283.64H429.972V292.572H430.938V294ZM433.351 285.628C432.609 285.628 432.301 285.25 432.301 284.732V284.452C432.301 283.934 432.609 283.556 433.351 283.556C434.079 283.556 434.401 283.934 434.401 284.452V284.732C434.401 285.25 434.079 285.628 433.351 285.628ZM432.455 294V286.692H434.247V294H432.455ZM439.368 294.168C437.212 294.168 435.994 292.684 435.994 290.332C435.994 287.994 437.212 286.524 439.368 286.524C440.838 286.524 441.804 287.224 442.238 288.372L440.768 289.03C440.6 288.414 440.138 287.966 439.368 287.966C438.374 287.966 437.87 288.666 437.87 289.688V291.018C437.87 292.04 438.374 292.726 439.368 292.726C440.222 292.726 440.642 292.236 440.908 291.578L442.28 292.236C441.804 293.524 440.782 294.168 439.368 294.168ZM445.628 294.168C444.144 294.168 443.304 293.314 443.304 292.012C443.304 290.514 444.438 289.772 446.426 289.772H447.672V289.24C447.672 288.428 447.266 287.952 446.314 287.952C445.474 287.952 444.998 288.372 444.648 288.876L443.584 287.924C444.116 287.084 444.97 286.524 446.44 286.524C448.414 286.524 449.464 287.462 449.464 289.128V292.572H450.192V294H449.198C448.428 294 447.952 293.496 447.84 292.74H447.756C447.518 293.678 446.72 294.168 445.628 294.168ZM446.23 292.866C447.028 292.866 447.672 292.502 447.672 291.816V290.85H446.524C445.586 290.85 445.124 291.172 445.124 291.746V291.984C445.124 292.572 445.53 292.866 446.23 292.866ZM462.243 294H455.509V292.502H458.197V285.558H458.071L455.943 288.078L454.795 287.112L457.217 284.228H460.003V292.502H462.243V294Z" fill="black"/>
</g>
</g>
</g>
<g id="Frame 6">
<g id="Location_9">
<rect width="216" height="232" transform="translate(560 136)" fill="white"/>
<rect id="Background white_7" x="560" y="136" width="216" height="232" fill="white"/>
<g id="Content_7" clip-path="url(#clip6_473_6196)">
<g id="Label + Text_9">
<path id="Label_9" d="M625.114 165H623.196L622.412 162.508H618.94L618.17 165H616.294L619.57 155.228H621.866L625.114 165ZM621.964 160.926L620.704 156.908H620.634L619.388 160.926H621.964ZM629.915 165H627.787L625.351 157.692H627.115L628.137 160.842L628.851 163.446H628.949L629.663 160.842L630.657 157.692H632.365L629.915 165ZM635.404 165.168C633.92 165.168 633.08 164.314 633.08 163.012C633.08 161.514 634.214 160.772 636.202 160.772H637.448V160.24C637.448 159.428 637.042 158.952 636.09 158.952C635.25 158.952 634.774 159.372 634.424 159.876L633.36 158.924C633.892 158.084 634.746 157.524 636.216 157.524C638.19 157.524 639.24 158.462 639.24 160.128V163.572H639.968V165H638.974C638.204 165 637.728 164.496 637.616 163.74H637.532C637.294 164.678 636.496 165.168 635.404 165.168ZM636.006 163.866C636.804 163.866 637.448 163.502 637.448 162.816V161.85H636.3C635.362 161.85 634.9 162.172 634.9 162.746V162.984C634.9 163.572 635.306 163.866 636.006 163.866ZM642.474 156.628C641.732 156.628 641.424 156.25 641.424 155.732V155.452C641.424 154.934 641.732 154.556 642.474 154.556C643.202 154.556 643.524 154.934 643.524 155.452V155.732C643.524 156.25 643.202 156.628 642.474 156.628ZM641.578 165V157.692H643.37V165H641.578ZM648.366 165H647.4C646.182 165 645.608 164.356 645.608 163.236V154.64H647.4V163.572H648.366V165ZM651.689 165.168C650.205 165.168 649.365 164.314 649.365 163.012C649.365 161.514 650.499 160.772 652.487 160.772H653.733V160.24C653.733 159.428 653.327 158.952 652.375 158.952C651.535 158.952 651.059 159.372 650.709 159.876L649.645 158.924C650.177 158.084 651.031 157.524 652.501 157.524C654.475 157.524 655.525 158.462 655.525 160.128V163.572H656.253V165H655.259C654.489 165 654.013 164.496 653.901 163.74H653.817C653.579 164.678 652.781 165.168 651.689 165.168ZM652.291 163.866C653.089 163.866 653.733 163.502 653.733 162.816V161.85H652.585C651.647 161.85 651.185 162.172 651.185 162.746V162.984C651.185 163.572 651.591 163.866 652.291 163.866ZM657.863 165V154.64H659.655V158.896H659.711C659.977 158.056 660.761 157.524 661.727 157.524C663.575 157.524 664.597 158.896 664.597 161.332C664.597 163.782 663.575 165.168 661.727 165.168C660.761 165.168 659.991 164.608 659.711 163.782H659.655V165H657.863ZM661.153 163.684C662.077 163.684 662.721 163.012 662.721 161.976V160.716C662.721 159.68 662.077 158.994 661.153 158.994C660.299 158.994 659.655 159.456 659.655 160.17V162.494C659.655 163.25 660.299 163.684 661.153 163.684ZM667.314 156.628C666.572 156.628 666.264 156.25 666.264 155.732V155.452C666.264 154.934 666.572 154.556 667.314 154.556C668.042 154.556 668.364 154.934 668.364 155.452V155.732C668.364 156.25 668.042 156.628 667.314 156.628ZM666.418 165V157.692H668.21V165H666.418ZM673.205 165H672.239C671.021 165 670.447 164.356 670.447 163.236V154.64H672.239V163.572H673.205V165ZM675.618 156.628C674.876 156.628 674.568 156.25 674.568 155.732V155.452C674.568 154.934 674.876 154.556 675.618 154.556C676.346 154.556 676.668 154.934 676.668 155.452V155.732C676.668 156.25 676.346 156.628 675.618 156.628ZM674.722 165V157.692H676.514V165H674.722ZM681.033 165C679.801 165 679.143 164.328 679.143 163.138V159.12H678.065V157.692H678.625C679.157 157.692 679.325 157.44 679.325 156.936V155.69H680.935V157.692H682.433V159.12H680.935V163.572H682.321V165H681.033ZM687.354 161.556L688.628 157.692H690.308L687.368 166.302C687.004 167.352 686.486 167.8 685.282 167.8H684.204V166.372H685.52L685.856 165.35L683.238 157.692H685.016L686.29 161.556L686.766 163.404H686.85L687.354 161.556ZM700.592 165H694.6V163.572L698.394 159.106H694.726V157.692H700.494V159.078L696.672 163.572H700.592V165ZM705.053 165.168C702.967 165.168 701.665 163.684 701.665 161.332C701.665 158.994 702.967 157.524 705.053 157.524C707.153 157.524 708.455 158.994 708.455 161.332C708.455 163.684 707.153 165.168 705.053 165.168ZM705.053 163.726C705.991 163.726 706.579 163.124 706.579 162.018V160.66C706.579 159.568 705.991 158.966 705.053 158.966C704.129 158.966 703.541 159.568 703.541 160.66V162.018C703.541 163.124 704.129 163.726 705.053 163.726ZM711.996 165H710.204V157.692H711.996V158.91H712.066C712.36 158.126 712.976 157.524 714.11 157.524C715.608 157.524 716.448 158.56 716.448 160.38V165H714.656V160.562C714.656 159.526 714.306 158.994 713.452 158.994C712.71 158.994 711.996 159.386 711.996 160.17V165ZM721.548 165.168C719.392 165.168 718.104 163.67 718.104 161.332C718.104 159.022 719.35 157.524 721.492 157.524C723.774 157.524 724.824 159.204 724.824 161.206V161.794H719.966V161.976C719.966 163.026 720.568 163.74 721.744 163.74C722.626 163.74 723.158 163.32 723.606 162.746L724.572 163.824C723.97 164.65 722.906 165.168 721.548 165.168ZM721.52 158.868C720.582 158.868 719.966 159.568 719.966 160.576V160.688H722.962V160.562C722.962 159.554 722.444 158.868 721.52 158.868ZM731.695 159.176H732.661C733.781 159.176 734.299 158.658 734.299 157.958V157.86C734.299 157.062 733.739 156.572 732.857 156.572C732.003 156.572 731.331 157.006 730.855 157.748L729.679 156.684C730.337 155.774 731.261 155.06 732.913 155.06C734.887 155.06 736.231 156.04 736.231 157.608C736.231 158.868 735.377 159.624 734.355 159.834V159.918C735.489 160.128 736.399 160.912 736.399 162.298C736.399 164.02 734.957 165.168 732.801 165.168C730.897 165.168 729.945 164.3 729.329 163.348L730.687 162.312C731.121 163.096 731.709 163.656 732.801 163.656C733.879 163.656 734.481 163.096 734.481 162.186V162.088C734.481 161.192 733.823 160.716 732.661 160.716H731.695V159.176Z" fill="black"/>
</g>
<g id="Icon_9">
<g id="Data--center_3">
<rect width="24" height="24" transform="translate(576 148)" fill="white" fill-opacity="0.01" style="mix-blend-mode:multiply"/>
<g id="Vector_9">
<path d="M597 155.5H593.25V152.5C593.25 152.102 593.091 151.721 592.81 151.44C592.529 151.159 592.148 151 591.75 151H584.25C583.852 151 583.471 151.159 583.19 151.44C582.909 151.721 582.75 152.102 582.75 152.5V155.5H579C578.602 155.5 578.221 155.659 577.94 155.94C577.659 156.221 577.5 156.602 577.5 157V169C577.5 169.398 577.659 169.779 577.94 170.06C578.221 170.341 578.602 170.5 579 170.5H597C597.398 170.5 597.779 170.341 598.06 170.06C598.341 169.779 598.5 169.398 598.5 169V157C598.5 156.602 598.341 156.221 598.06 155.94C597.779 155.659 597.398 155.5 597 155.5ZM579 169V157H582.75V158.5H581.25V160H582.75V161.5H581.25V163H582.75V164.5H581.25V166H582.75V169H579ZM591.75 169H584.25V152.5H591.75V169ZM597 169H593.25V166H594.75V164.5H593.25V163H594.75V161.5H593.25V160H594.75V158.5H593.25V157H597V169Z" fill="black"/>
<path d="M589.5 154H586.5V155.5H589.5V154Z" fill="black"/>
<path d="M589.5 157H586.5V158.5H589.5V157Z" fill="black"/>
<path d="M589.5 160H586.5V161.5H589.5V160Z" fill="black"/>
</g>
</g>
</g>
</g>
<path id="Dash border_3" d="M566 136V136.5H570V136H574V136.5H578V136H582V136.5H586V136H590V136.5H594V136H598V136.5H602V136H606V136.5H610V136H614V136.5H618V136H622V136.5H626V136H630V136.5H634V136H638V136.5H642V136H646V136.5H650V136H654V136.5H658V136H662V136.5H666V136H670V136.5H674V136H678V136.5H682V136H686V136.5H690V136H694V136.5H698V136H702V136.5H706V136H710V136.5H714V136H718V136.5H722V136H726V136.5H730V136H734V136.5H738V136H742V136.5H746V136H750V136.5H754V136H758V136.5H762V136H766V136.5H770V136H774V136.5H775.5V138H776V142H775.5V146H776V150H775.5V154H776V158H775.5V162H776V166H775.5V170H776V174H775.5V178H776V182H775.5V186H776V190H775.5V194H776V198H775.5V202H776V206H775.5V210H776V214H775.5V218H776V222H775.5V226H776V230H775.5V234H776V238H775.5V242H776V246H775.5V250H776V254H775.5V258H776V262H775.5V266H776V270H775.5V274H776V278H775.5V282H776V286H775.5V290H776V294H775.5V298H776V302H775.5V306H776V310H775.5V314H776V318H775.5V322H776V326H775.5V330H776V334H775.5V338H776V342H775.5V346H776V350H775.5V354H776V358H775.5V362H776V366H775.5V367.5H774V368H770V367.5H766V368H762V367.5H758V368H754V367.5H750V368H746V367.5H742V368H738V367.5H734V368H730V367.5H726V368H722V367.5H718V368H714V367.5H710V368H706V367.5H702V368H698V367.5H694V368H690V367.5H686V368H682V367.5H678V368H674V367.5H670V368H666V367.5H662V368H658V367.5H654V368H650V367.5H646V368H642V367.5H638V368H634V367.5H630V368H626V367.5H622V368H618V367.5H614V368H610V367.5H606V368H602V367.5H598V368H594V367.5H590V368H586V367.5H582V368H578V367.5H574V368H570V367.5H566V368H562V367.5H560.5V366H560V362H560.5V358H560V354H560.5V350H560V346H560.5V342H560V338H560.5V334H560V330H560.5V326H560V322H560.5V318H560V314H560.5V310H560V306H560.5V302H560V298H560.5V294H560V290H560.5V286H560V282H560.5V278H560V274H560.5V270H560V266H560.5V262H560V258H560.5V254H560V250H560.5V246H560V242H560.5V238H560V234H560.5V230H560V226H560.5V222H560V218H560.5V214H560V210H560.5V206H560V202H560.5V198H560V194H560.5V190H560V186H560.5V182H560V178H560.5V174H560V170H560.5V166H560V162H560.5V158H560V154H560.5V150H560V146H560.5V142H560V138H560.5V136.5H562V136H566Z" stroke="black" stroke-dasharray="4 4"/>
</g>
<g id="Control plane_3">
<rect width="79" height="74" transform="translate(628 226)" fill="white" fill-opacity="0.01" style="mix-blend-mode:multiply"/>
<g id="Icon_10">
<path id="Background color_6" d="M651.5 226H683.5C687.918 226 691.5 229.582 691.5 234V266C691.5 270.418 687.918 274 683.5 274H651.5C647.082 274 643.5 270.418 643.5 266V234C643.5 229.582 647.082 226 651.5 226Z" fill="#0F62FE"/>
<g id="Database--mongodb_3" clip-path="url(#clip7_473_6196)">
<rect width="24" height="24" transform="translate(655.5 238)" fill="white" fill-opacity="0.01"/>
<g id="Vector_10">
<path d="M674.511 259.656C671.476 259.656 670.32 258.863 670.32 257.535C670.311 257.316 670.346 257.098 670.422 256.892C670.498 256.687 670.614 256.499 670.763 256.338C670.912 256.178 671.091 256.049 671.291 255.958C671.49 255.867 671.705 255.817 671.924 255.81V255.62C671.587 255.545 671.286 255.353 671.075 255.079C670.864 254.805 670.756 254.466 670.769 254.12C670.769 253.189 671.562 252.723 672.424 252.533V252.464C671.917 252.246 671.488 251.878 671.196 251.409C670.903 250.941 670.76 250.395 670.786 249.843C670.786 248.015 672.079 246.79 674.511 246.79C675.043 246.781 675.572 246.857 676.08 247.015V246.722C676.054 246.547 676.069 246.368 676.123 246.199C676.178 246.031 676.27 245.877 676.394 245.751C676.518 245.624 676.669 245.527 676.836 245.468C677.003 245.409 677.181 245.39 677.357 245.411H678.753V247.101H676.839V247.343C677.284 247.586 677.65 247.95 677.898 248.392C678.145 248.834 678.262 249.337 678.236 249.843C678.236 251.654 676.96 252.861 674.511 252.861C674.047 252.868 673.583 252.816 673.132 252.706C672.957 252.762 672.802 252.869 672.688 253.014C672.575 253.158 672.507 253.333 672.493 253.517C672.493 253.965 672.873 254.189 673.666 254.189H676.08C678.288 254.189 679.236 255.138 679.236 256.759C679.236 258.639 677.96 259.656 674.511 259.656ZM675.632 256.103H672.562C672.414 256.208 672.294 256.348 672.213 256.511C672.132 256.673 672.092 256.853 672.097 257.035C672.097 257.725 672.614 258.138 673.994 258.138H675.097C676.529 258.138 677.167 257.776 677.167 257.017C677.167 256.448 676.753 256.103 675.632 256.103ZM676.132 249.981V249.688C676.132 248.774 675.563 248.308 674.511 248.308C673.459 248.308 672.89 248.773 672.89 249.688V249.981C672.89 250.878 673.459 251.361 674.511 251.361C675.563 251.361 676.132 250.877 676.132 249.981Z" fill="white"/>
<path d="M657.176 243.962H659.745L662.832 249.843H662.901L665.954 243.962H668.42V256H666.264V247.36H666.196L665.264 249.274L662.798 253.826L660.332 249.274L659.401 247.36H659.331V256H657.176V243.962Z" fill="white"/>
</g>
</g>
</g>
<g id="Label + Text_10">
<path id="Label_10" d="M639.867 292.234V296H638.019V286.228H642.429C644.207 286.228 645.313 287.404 645.313 289.252C645.313 290.596 644.697 291.618 643.493 292.024L645.495 296H643.437L641.617 292.234H639.867ZM639.867 290.68H642.247C642.961 290.68 643.395 290.288 643.395 289.574V288.93C643.395 288.216 642.961 287.838 642.247 287.838H639.867V290.68ZM650.113 296.168C647.957 296.168 646.669 294.67 646.669 292.332C646.669 290.022 647.915 288.524 650.057 288.524C652.339 288.524 653.389 290.204 653.389 292.206V292.794H648.531V292.976C648.531 294.026 649.133 294.74 650.309 294.74C651.191 294.74 651.723 294.32 652.171 293.746L653.137 294.824C652.535 295.65 651.471 296.168 650.113 296.168ZM650.085 289.868C649.147 289.868 648.531 290.568 648.531 291.576V291.688H651.527V291.562C651.527 290.554 651.009 289.868 650.085 289.868ZM655.125 298.8V288.692H656.917V289.896H656.973C657.239 289.056 658.023 288.524 658.989 288.524C660.837 288.524 661.859 289.896 661.859 292.332C661.859 294.782 660.837 296.168 658.989 296.168C658.023 296.168 657.253 295.608 656.973 294.782H656.917V298.8H655.125ZM658.415 294.684C659.339 294.684 659.983 294.012 659.983 292.976V291.716C659.983 290.68 659.339 289.994 658.415 289.994C657.561 289.994 656.917 290.456 656.917 291.17V293.494C656.917 294.25 657.561 294.684 658.415 294.684ZM666.438 296H665.472C664.254 296 663.68 295.356 663.68 294.236V285.64H665.472V294.572H666.438V296ZM668.851 287.628C668.109 287.628 667.801 287.25 667.801 286.732V286.452C667.801 285.934 668.109 285.556 668.851 285.556C669.579 285.556 669.901 285.934 669.901 286.452V286.732C669.901 287.25 669.579 287.628 668.851 287.628ZM667.955 296V288.692H669.747V296H667.955ZM674.868 296.168C672.712 296.168 671.494 294.684 671.494 292.332C671.494 289.994 672.712 288.524 674.868 288.524C676.338 288.524 677.304 289.224 677.738 290.372L676.268 291.03C676.1 290.414 675.638 289.966 674.868 289.966C673.874 289.966 673.37 290.666 673.37 291.688V293.018C673.37 294.04 673.874 294.726 674.868 294.726C675.722 294.726 676.142 294.236 676.408 293.578L677.78 294.236C677.304 295.524 676.282 296.168 674.868 296.168ZM681.128 296.168C679.644 296.168 678.804 295.314 678.804 294.012C678.804 292.514 679.938 291.772 681.926 291.772H683.172V291.24C683.172 290.428 682.766 289.952 681.814 289.952C680.974 289.952 680.498 290.372 680.148 290.876L679.084 289.924C679.616 289.084 680.47 288.524 681.94 288.524C683.914 288.524 684.964 289.462 684.964 291.128V294.572H685.692V296H684.698C683.928 296 683.452 295.496 683.34 294.74H683.256C683.018 295.678 682.22 296.168 681.128 296.168ZM681.73 294.866C682.528 294.866 683.172 294.502 683.172 293.816V292.85H682.024C681.086 292.85 680.624 293.172 680.624 293.746V293.984C680.624 294.572 681.03 294.866 681.73 294.866ZM697.379 294.446V296H690.603V294.292L693.669 291.604C694.705 290.694 695.181 290.022 695.181 289.168V288.986C695.181 288.132 694.537 287.656 693.739 287.656C692.731 287.656 692.255 288.314 692.031 289.112L690.435 288.496C690.855 287.194 691.905 286.06 693.893 286.06C695.951 286.06 697.127 287.292 697.127 288.972C697.127 290.596 696.021 291.632 694.663 292.752L692.605 294.446H697.379Z" fill="black"/>
</g>
</g>
</g>
</g>
<g id="Group 1">
<g id="Location_10">
<rect x="816.5" y="140.5" width="191" height="587" fill="white" style="mix-blend-mode:multiply"/>
<rect x="816.5" y="140.5" width="191" height="587" stroke="#0F62FE"/>
<g id="Content_8" clip-path="url(#clip8_473_6196)">
<g id="Label + Text_11">
<path id="Label_11" d="M836.942 169.168C834.366 169.168 832.728 167.474 832.728 164.184C832.728 160.894 834.366 159.06 836.942 159.06C838.692 159.06 839.826 159.802 840.512 161.314L838.93 162.154C838.65 161.286 838.034 160.698 836.942 160.698C835.57 160.698 834.688 161.692 834.688 163.358V164.898C834.688 166.578 835.57 167.53 836.942 167.53C838.048 167.53 838.734 166.858 839.056 165.976L840.554 166.858C839.854 168.314 838.692 169.168 836.942 169.168ZM844.936 169H843.97C842.752 169 842.178 168.356 842.178 167.236V158.64H843.97V167.572H844.936V169ZM849.352 169.168C847.266 169.168 845.964 167.684 845.964 165.332C845.964 162.994 847.266 161.524 849.352 161.524C851.452 161.524 852.754 162.994 852.754 165.332C852.754 167.684 851.452 169.168 849.352 169.168ZM849.352 167.726C850.29 167.726 850.878 167.124 850.878 166.018V164.66C850.878 163.568 850.29 162.966 849.352 162.966C848.428 162.966 847.84 163.568 847.84 164.66V166.018C847.84 167.124 848.428 167.726 849.352 167.726ZM858.87 169V167.782H858.8C858.548 168.51 857.96 169.168 856.756 169.168C855.258 169.168 854.418 168.132 854.418 166.312V161.692H856.21V166.13C856.21 167.138 856.588 167.684 857.442 167.684C858.156 167.684 858.87 167.306 858.87 166.522V161.692H860.662V169H858.87ZM867.429 169V167.782H867.359C867.093 168.608 866.309 169.168 865.343 169.168C863.509 169.168 862.487 167.782 862.487 165.332C862.487 162.896 863.509 161.524 865.343 161.524C866.309 161.524 867.107 162.056 867.359 162.896H867.429V158.64H869.221V169H867.429ZM865.917 167.684C866.771 167.684 867.429 167.25 867.429 166.494V164.17C867.429 163.456 866.771 162.994 865.917 162.994C864.993 162.994 864.363 163.68 864.363 164.716V165.976C864.363 167.012 864.993 167.684 865.917 167.684ZM877.31 169.168C875.924 169.168 875.014 168.664 874.286 167.824L875.378 166.76C875.91 167.376 876.554 167.754 877.38 167.754C878.234 167.754 878.598 167.432 878.598 166.914C878.598 166.494 878.346 166.228 877.702 166.144L876.974 166.046C875.406 165.85 874.538 165.164 874.538 163.834C874.538 162.42 875.644 161.524 877.31 161.524C878.738 161.524 879.466 161.944 880.166 162.672L879.116 163.722C878.696 163.274 878.08 162.938 877.366 162.938C876.596 162.938 876.26 163.246 876.26 163.694C876.26 164.184 876.526 164.408 877.212 164.52L877.954 164.618C879.55 164.842 880.32 165.556 880.32 166.774C880.32 168.188 879.13 169.168 877.31 169.168ZM885.016 169.168C882.86 169.168 881.572 167.67 881.572 165.332C881.572 163.022 882.818 161.524 884.96 161.524C887.242 161.524 888.292 163.204 888.292 165.206V165.794H883.434V165.976C883.434 167.026 884.036 167.74 885.212 167.74C886.094 167.74 886.626 167.32 887.074 166.746L888.04 167.824C887.438 168.65 886.374 169.168 885.016 169.168ZM884.988 162.868C884.05 162.868 883.434 163.568 883.434 164.576V164.688H886.43V164.562C886.43 163.554 885.912 162.868 884.988 162.868ZM891.821 169H890.029V161.692H891.821V163.204H891.891C892.073 162.434 892.661 161.692 893.823 161.692H894.215V163.386H893.655C892.451 163.386 891.821 163.722 891.821 164.52V169ZM899.49 169H897.362L894.926 161.692H896.69L897.712 164.842L898.426 167.446H898.524L899.238 164.842L900.232 161.692H901.94L899.49 169ZM904.192 160.628C903.45 160.628 903.142 160.25 903.142 159.732V159.452C903.142 158.934 903.45 158.556 904.192 158.556C904.92 158.556 905.242 158.934 905.242 159.452V159.732C905.242 160.25 904.92 160.628 904.192 160.628ZM903.296 169V161.692H905.088V169H903.296ZM910.209 169.168C908.053 169.168 906.835 167.684 906.835 165.332C906.835 162.994 908.053 161.524 910.209 161.524C911.679 161.524 912.645 162.224 913.079 163.372L911.609 164.03C911.441 163.414 910.979 162.966 910.209 162.966C909.215 162.966 908.711 163.666 908.711 164.688V166.018C908.711 167.04 909.215 167.726 910.209 167.726C911.063 167.726 911.483 167.236 911.749 166.578L913.121 167.236C912.645 168.524 911.623 169.168 910.209 169.168ZM917.549 169.168C915.393 169.168 914.105 167.67 914.105 165.332C914.105 163.022 915.351 161.524 917.493 161.524C919.775 161.524 920.825 163.204 920.825 165.206V165.794H915.967V165.976C915.967 167.026 916.569 167.74 917.745 167.74C918.627 167.74 919.159 167.32 919.607 166.746L920.573 167.824C919.971 168.65 918.907 169.168 917.549 169.168ZM917.521 162.868C916.583 162.868 915.967 163.568 915.967 164.576V164.688H918.963V164.562C918.963 163.554 918.445 162.868 917.521 162.868ZM924.955 169.168C923.569 169.168 922.659 168.664 921.931 167.824L923.023 166.76C923.555 167.376 924.199 167.754 925.025 167.754C925.879 167.754 926.243 167.432 926.243 166.914C926.243 166.494 925.991 166.228 925.347 166.144L924.619 166.046C923.051 165.85 922.183 165.164 922.183 163.834C922.183 162.42 923.289 161.524 924.955 161.524C926.383 161.524 927.111 161.944 927.811 162.672L926.761 163.722C926.341 163.274 925.725 162.938 925.011 162.938C924.241 162.938 923.905 163.246 923.905 163.694C923.905 164.184 924.171 164.408 924.857 164.52L925.599 164.618C927.195 164.842 927.965 165.556 927.965 166.774C927.965 168.188 926.775 169.168 924.955 169.168Z" fill="black"/>
</g>
</g>
</g>
<g id="Control plane_4">
<rect width="48" height="92" transform="translate(888 227)" fill="white" style="mix-blend-mode:multiply"/>
<g id="Icon_11">
<path id="Background color_7" d="M896 227H928C932.418 227 936 230.582 936 235V267C936 271.418 932.418 275 928 275H896C891.582 275 888 271.418 888 267V235C888 230.582 891.582 227 896 227Z" fill="#0F62FE"/>
<g id="Object-storage">
<rect width="24" height="24" transform="translate(900 239)" fill="white" fill-opacity="0.01"/>
<g id="Vector_11">
<path d="M921 254H919.5V255.5H921V260H903V255.5H910.5V254H903C902.602 254 902.221 254.159 901.94 254.44C901.659 254.721 901.5 255.102 901.5 255.5V260C901.5 260.398 901.659 260.779 901.94 261.06C902.221 261.341 902.602 261.5 903 261.5H921C921.398 261.5 921.779 261.341 922.06 261.06C922.341 260.779 922.5 260.398 922.5 260V255.5C922.5 255.102 922.341 254.721 922.06 254.44C921.779 254.159 921.398 254 921 254Z" fill="#F4F4F4"/>
<path d="M905.25 258.5C905.664 258.5 906 258.164 906 257.75C906 257.336 905.664 257 905.25 257C904.836 257 904.5 257.336 904.5 257.75C904.5 258.164 904.836 258.5 905.25 258.5Z" fill="#F4F4F4"/>
<path d="M922.5 245H916.5V249.5H912V255.5H918V251H922.5V245ZM916.5 254H913.5V251H916.5V254ZM921 249.5H918V246.5H921V249.5Z" fill="#F4F4F4"/>
<path d="M913.5 246.5H907.5V240.5H913.5V246.5ZM909 245H912V242H909V245Z" fill="#F4F4F4"/>
</g>
</g>
</g>
<g id="Label + Text_12">
<path id="Label_12" d="M895.278 297.168C892.716 297.168 891.022 295.418 891.022 292.114C891.022 288.81 892.716 287.06 895.278 287.06C897.854 287.06 899.534 288.81 899.534 292.114C899.534 295.418 897.854 297.168 895.278 297.168ZM895.278 295.53C896.678 295.53 897.574 294.536 897.574 292.87V291.358C897.574 289.692 896.678 288.698 895.278 288.698C893.878 288.698 892.982 289.692 892.982 291.358V292.87C892.982 294.536 893.878 295.53 895.278 295.53ZM901.457 297V286.64H903.249V290.896H903.305C903.571 290.056 904.355 289.524 905.321 289.524C907.169 289.524 908.191 290.896 908.191 293.332C908.191 295.782 907.169 297.168 905.321 297.168C904.355 297.168 903.585 296.608 903.305 295.782H903.249V297H901.457ZM904.747 295.684C905.671 295.684 906.315 295.012 906.315 293.976V292.716C906.315 291.68 905.671 290.994 904.747 290.994C903.893 290.994 903.249 291.456 903.249 292.17V294.494C903.249 295.25 903.893 295.684 904.747 295.684ZM910.012 298.372V289.692H911.804V297.882C911.804 299.1 911.216 299.8 909.872 299.8H908.892V298.372H910.012ZM910.908 288.628C910.166 288.628 909.858 288.25 909.858 287.732V287.452C909.858 286.934 910.166 286.556 910.908 286.556C911.636 286.556 911.958 286.934 911.958 287.452V287.732C911.958 288.25 911.636 288.628 910.908 288.628ZM916.995 297.168C914.839 297.168 913.551 295.67 913.551 293.332C913.551 291.022 914.797 289.524 916.939 289.524C919.221 289.524 920.271 291.204 920.271 293.206V293.794H915.413V293.976C915.413 295.026 916.015 295.74 917.191 295.74C918.073 295.74 918.605 295.32 919.053 294.746L920.019 295.824C919.417 296.65 918.353 297.168 916.995 297.168ZM916.967 290.868C916.029 290.868 915.413 291.568 915.413 292.576V292.688H918.409V292.562C918.409 291.554 917.891 290.868 916.967 290.868ZM924.892 297.168C922.736 297.168 921.518 295.684 921.518 293.332C921.518 290.994 922.736 289.524 924.892 289.524C926.362 289.524 927.328 290.224 927.762 291.372L926.292 292.03C926.124 291.414 925.662 290.966 924.892 290.966C923.898 290.966 923.394 291.666 923.394 292.688V294.018C923.394 295.04 923.898 295.726 924.892 295.726C925.746 295.726 926.166 295.236 926.432 294.578L927.804 295.236C927.328 296.524 926.306 297.168 924.892 297.168ZM931.627 297C930.395 297 929.737 296.328 929.737 295.138V291.12H928.659V289.692H929.219C929.751 289.692 929.919 289.44 929.919 288.936V287.69H931.529V289.692H933.027V291.12H931.529V295.572H932.915V297H931.627ZM890.453 315V304.64H892.245V308.896H892.301C892.567 308.056 893.351 307.524 894.317 307.524C896.165 307.524 897.187 308.896 897.187 311.332C897.187 313.782 896.165 315.168 894.317 315.168C893.351 315.168 892.581 314.608 892.301 313.782H892.245V315H890.453ZM893.743 313.684C894.667 313.684 895.311 313.012 895.311 311.976V310.716C895.311 309.68 894.667 308.994 893.743 308.994C892.889 308.994 892.245 309.456 892.245 310.17V312.494C892.245 313.25 892.889 313.684 893.743 313.684ZM903.376 315V313.782H903.306C903.054 314.51 902.466 315.168 901.262 315.168C899.764 315.168 898.924 314.132 898.924 312.312V307.692H900.716V312.13C900.716 313.138 901.094 313.684 901.948 313.684C902.662 313.684 903.376 313.306 903.376 312.522V307.692H905.168V315H903.376ZM910.282 315.168C908.126 315.168 906.908 313.684 906.908 311.332C906.908 308.994 908.126 307.524 910.282 307.524C911.752 307.524 912.718 308.224 913.152 309.372L911.682 310.03C911.514 309.414 911.052 308.966 910.282 308.966C909.288 308.966 908.784 309.666 908.784 310.688V312.018C908.784 313.04 909.288 313.726 910.282 313.726C911.136 313.726 911.556 313.236 911.822 312.578L913.194 313.236C912.718 314.524 911.696 315.168 910.282 315.168ZM914.736 315V304.64H916.528V310.884H916.598L917.564 309.568L919.202 307.692H921.232L918.712 310.52L921.498 315H919.37L917.494 311.724L916.528 312.774V315H914.736ZM925.37 315.168C923.214 315.168 921.926 313.67 921.926 311.332C921.926 309.022 923.172 307.524 925.314 307.524C927.596 307.524 928.646 309.204 928.646 311.206V311.794H923.788V311.976C923.788 313.026 924.39 313.74 925.566 313.74C926.448 313.74 926.98 313.32 927.428 312.746L928.394 313.824C927.792 314.65 926.728 315.168 925.37 315.168ZM925.342 308.868C924.404 308.868 923.788 309.568 923.788 310.576V310.688H926.784V310.562C926.784 309.554 926.266 308.868 925.342 308.868ZM932.664 315C931.432 315 930.774 314.328 930.774 313.138V309.12H929.696V307.692H930.256C930.788 307.692 930.956 307.44 930.956 306.936V305.69H932.566V307.692H934.064V309.12H932.566V313.572H933.952V315H932.664Z" fill="black"/>
</g>
</g>
<g id="Control plane_5">
<rect width="48" height="92" transform="translate(888 584)" fill="white" style="mix-blend-mode:multiply"/>
<g id="Icon_12">
<path id="Background color_8" d="M896 584H928C932.418 584 936 587.582 936 592V624C936 628.418 932.418 632 928 632H896C891.582 632 888 628.418 888 624V592C888 587.582 891.582 584 896 584Z" fill="#0F62FE"/>
<g id="Object-storage_2">
<rect width="24" height="24" transform="translate(900 596)" fill="white" fill-opacity="0.01"/>
<g id="Vector_12">
<path d="M921 611H919.5V612.5H921V617H903V612.5H910.5V611H903C902.602 611 902.221 611.159 901.94 611.44C901.659 611.721 901.5 612.102 901.5 612.5V617C901.5 617.398 901.659 617.779 901.94 618.06C902.221 618.341 902.602 618.5 903 618.5H921C921.398 618.5 921.779 618.341 922.06 618.06C922.341 617.779 922.5 617.398 922.5 617V612.5C922.5 612.102 922.341 611.721 922.06 611.44C921.779 611.159 921.398 611 921 611Z" fill="#F4F4F4"/>
<path d="M905.25 615.5C905.664 615.5 906 615.164 906 614.75C906 614.336 905.664 614 905.25 614C904.836 614 904.5 614.336 904.5 614.75C904.5 615.164 904.836 615.5 905.25 615.5Z" fill="#F4F4F4"/>
<path d="M922.5 602H916.5V606.5H912V612.5H918V608H922.5V602ZM916.5 611H913.5V608H916.5V611ZM921 606.5H918V603.5H921V606.5Z" fill="#F4F4F4"/>
<path d="M913.5 603.5H907.5V597.5H913.5V603.5ZM909 602H912V599H909V602Z" fill="#F4F4F4"/>
</g>
</g>
</g>
<g id="Label + Text_13">
<path id="Label_13" d="M895.278 654.168C892.716 654.168 891.022 652.418 891.022 649.114C891.022 645.81 892.716 644.06 895.278 644.06C897.854 644.06 899.534 645.81 899.534 649.114C899.534 652.418 897.854 654.168 895.278 654.168ZM895.278 652.53C896.678 652.53 897.574 651.536 897.574 649.87V648.358C897.574 646.692 896.678 645.698 895.278 645.698C893.878 645.698 892.982 646.692 892.982 648.358V649.87C892.982 651.536 893.878 652.53 895.278 652.53ZM901.457 654V643.64H903.249V647.896H903.305C903.571 647.056 904.355 646.524 905.321 646.524C907.169 646.524 908.191 647.896 908.191 650.332C908.191 652.782 907.169 654.168 905.321 654.168C904.355 654.168 903.585 653.608 903.305 652.782H903.249V654H901.457ZM904.747 652.684C905.671 652.684 906.315 652.012 906.315 650.976V649.716C906.315 648.68 905.671 647.994 904.747 647.994C903.893 647.994 903.249 648.456 903.249 649.17V651.494C903.249 652.25 903.893 652.684 904.747 652.684ZM910.012 655.372V646.692H911.804V654.882C911.804 656.1 911.216 656.8 909.872 656.8H908.892V655.372H910.012ZM910.908 645.628C910.166 645.628 909.858 645.25 909.858 644.732V644.452C909.858 643.934 910.166 643.556 910.908 643.556C911.636 643.556 911.958 643.934 911.958 644.452V644.732C911.958 645.25 911.636 645.628 910.908 645.628ZM916.995 654.168C914.839 654.168 913.551 652.67 913.551 650.332C913.551 648.022 914.797 646.524 916.939 646.524C919.221 646.524 920.271 648.204 920.271 650.206V650.794H915.413V650.976C915.413 652.026 916.015 652.74 917.191 652.74C918.073 652.74 918.605 652.32 919.053 651.746L920.019 652.824C919.417 653.65 918.353 654.168 916.995 654.168ZM916.967 647.868C916.029 647.868 915.413 648.568 915.413 649.576V649.688H918.409V649.562C918.409 648.554 917.891 647.868 916.967 647.868ZM924.892 654.168C922.736 654.168 921.518 652.684 921.518 650.332C921.518 647.994 922.736 646.524 924.892 646.524C926.362 646.524 927.328 647.224 927.762 648.372L926.292 649.03C926.124 648.414 925.662 647.966 924.892 647.966C923.898 647.966 923.394 648.666 923.394 649.688V651.018C923.394 652.04 923.898 652.726 924.892 652.726C925.746 652.726 926.166 652.236 926.432 651.578L927.804 652.236C927.328 653.524 926.306 654.168 924.892 654.168ZM931.627 654C930.395 654 929.737 653.328 929.737 652.138V648.12H928.659V646.692H929.219C929.751 646.692 929.919 646.44 929.919 645.936V644.69H931.529V646.692H933.027V648.12H931.529V652.572H932.915V654H931.627ZM890.453 672V661.64H892.245V665.896H892.301C892.567 665.056 893.351 664.524 894.317 664.524C896.165 664.524 897.187 665.896 897.187 668.332C897.187 670.782 896.165 672.168 894.317 672.168C893.351 672.168 892.581 671.608 892.301 670.782H892.245V672H890.453ZM893.743 670.684C894.667 670.684 895.311 670.012 895.311 668.976V667.716C895.311 666.68 894.667 665.994 893.743 665.994C892.889 665.994 892.245 666.456 892.245 667.17V669.494C892.245 670.25 892.889 670.684 893.743 670.684ZM903.376 672V670.782H903.306C903.054 671.51 902.466 672.168 901.262 672.168C899.764 672.168 898.924 671.132 898.924 669.312V664.692H900.716V669.13C900.716 670.138 901.094 670.684 901.948 670.684C902.662 670.684 903.376 670.306 903.376 669.522V664.692H905.168V672H903.376ZM910.282 672.168C908.126 672.168 906.908 670.684 906.908 668.332C906.908 665.994 908.126 664.524 910.282 664.524C911.752 664.524 912.718 665.224 913.152 666.372L911.682 667.03C911.514 666.414 911.052 665.966 910.282 665.966C909.288 665.966 908.784 666.666 908.784 667.688V669.018C908.784 670.04 909.288 670.726 910.282 670.726C911.136 670.726 911.556 670.236 911.822 669.578L913.194 670.236C912.718 671.524 911.696 672.168 910.282 672.168ZM914.736 672V661.64H916.528V667.884H916.598L917.564 666.568L919.202 664.692H921.232L918.712 667.52L921.498 672H919.37L917.494 668.724L916.528 669.774V672H914.736ZM925.37 672.168C923.214 672.168 921.926 670.67 921.926 668.332C921.926 666.022 923.172 664.524 925.314 664.524C927.596 664.524 928.646 666.204 928.646 668.206V668.794H923.788V668.976C923.788 670.026 924.39 670.74 925.566 670.74C926.448 670.74 926.98 670.32 927.428 669.746L928.394 670.824C927.792 671.65 926.728 672.168 925.37 672.168ZM925.342 665.868C924.404 665.868 923.788 666.568 923.788 667.576V667.688H926.784V667.562C926.784 666.554 926.266 665.868 925.342 665.868ZM932.664 672C931.432 672 930.774 671.328 930.774 670.138V666.12H929.696V664.692H930.256C930.788 664.692 930.956 664.44 930.956 663.936V662.69H932.566V664.692H934.064V666.12H932.566V670.572H933.952V672H932.664Z" fill="black"/>
</g>
</g>
<g id="Group 5">
<g id="Control plane_6">
<rect width="143.622" height="38" transform="matrix(1.56095e-08 -1 -1 -9.10999e-09 974 395.623)" fill="white" style="mix-blend-mode:multiply"/>
<g id="Line wrapper">
<g id="Line">
<rect width="143.622" height="38" transform="translate(974 252) rotate(90)" fill="white" fill-opacity="0.01" style="mix-blend-mode:multiply"/>
<path id="Line_2" d="M974 395.622L974 260C974 255.582 970.418 252 966 252L936 252" stroke="black" stroke-dasharray="4 4"/>
</g>
</g>
</g>
<g id="Control plane_7">
<rect width="212.378" height="38" transform="translate(974 395.623) rotate(90)" fill="white" style="mix-blend-mode:multiply"/>
<g id="Line wrapper_2">
<g id="Line_3">
<rect width="212.378" height="38" transform="matrix(1.56095e-08 -1 -1 -9.10999e-09 974 608)" fill="white" fill-opacity="0.01" style="mix-blend-mode:multiply"/>
<path id="Line_4" d="M974 395.622L974 600C974 604.418 970.418 608 966 608L936 608" stroke="black" stroke-dasharray="4 4"/>
</g>
</g>
</g>
</g>
</g>
</g>
</g>
<defs>
<clipPath id="clip0_473_6196">
<rect width="1104" height="48" fill="white"/>
</clipPath>
<clipPath id="clip1_473_6196">
<rect width="1008" height="48" fill="white" transform="translate(48 72)"/>
</clipPath>
<clipPath id="clip2_473_6196">
<rect width="1008" height="48" fill="white" transform="translate(48 72)"/>
</clipPath>
<clipPath id="clip3_473_6196">
<rect width="1008" height="48" fill="white" transform="translate(48 432)"/>
</clipPath>
<clipPath id="clip4_473_6196">
<rect width="216" height="48" fill="white" transform="translate(96 136)"/>
</clipPath>
<clipPath id="clip5_473_6196">
<rect width="216" height="48" fill="white" transform="translate(328 136)"/>
</clipPath>
<clipPath id="clip6_473_6196">
<rect width="216" height="48" fill="white" transform="translate(560 136)"/>
</clipPath>
<clipPath id="clip7_473_6196">
<rect width="24" height="24" fill="white" transform="translate(655.5 238)"/>
</clipPath>
<clipPath id="clip8_473_6196">
<rect width="192" height="48" fill="white" transform="translate(816 140)"/>
</clipPath>
</defs>
</svg>
